<?xml version="1.0" encoding="UTF-8"?>
<svg width="1440" height="294" xmlns="http://www.w3.org/2000/svg"><g fill="#EC4899" fill-rule="evenodd"><path d="M560.001 185.624h1.099c1.502.968 3.706.032 3.897-2.41.075-1.07-1.2-.953-1.058-2.08-2.72-.544-4 .574-3.836 3.355.11.233.253.41.396.587-.268.146-.52.301-.498.548M457.26 180.888c-.23.564.108.942.693 1.224 1.39-.195 2.526-.858 1.404-1.224h-2.097M439.737 178.478c1.455-.159 3.033-1.536 1.404-1.956-2.133.075-2.424 1.524-1.404 1.956M567.801 185.377c.015.24.861.195 1.398.246-.018-.237-.858-.186-1.398-.246M567 185.216c2.09-.633 6.271-.438 8-1.22-2.916-.66-6.868.36-8 1.22M410.023 173.72c1.88-1.21.793-1.608-1.124-2.445-2.034.654-3.402 2.568 1.124 2.445M401.298 149.128c-.43 1.92 3.046 3.553 2.93 4.657.094.251 1.069.179 1.758.215.268-2.526-3.414-4.641-4.103-6.99-3.472-.166-1.196 1.786-.585 2.118M1390.994 181.886c-1.516-1.395-4.104.37-3.99 1.737 1.916-.138 4.13-.057 3.99-1.737M1345.864 158.223c.015-.303.052-.591.57-.531-.02-.327-.038-.657-.06-.987-.602.039-1.206.072-1.809.108.036.495.063.99.093 1.482l1.207-.072M1354.004 145.283c-1.424 3.565-3.433 6.359-.49 9.265 9.187 3.205 10.567-11.766.49-9.265M1325.305 153.09c-.003 1.346.162 2.566 1.413 2.91.95-.912 2.124-3.513-1.413-2.91M1337.033 151.997c-.258-1.491 1.818-2.037.426-2.994-1.053.027-1.866.225-2.38.639-.191 1.566.874 1.968 1.954 2.355M1349.349 148.994c.86-1.269-2.13-1.326-1.833-.38.77-.022.873.578 1.833.38M1298 137.318c-1.457-1.548-2.02-3.954-4.714-4.318-.426.494-.913.188-2.444.573-1.137 1.451-1.075 4.903-.1 6.723 3.203 1.968 6.682-.57 7.258-2.978M1280.183 138.486c-.147.678-.8.996-.486 2.01 2.08.246 2.238-2.025.486-2.01M1273.892 141c-.396-1.322.972-1.554.387-3-1.974.29-2.403 2.703-.387 3M1381.93 123c.721-.927 1.925-1.508 2.07-2.843-1.742-.214-1.095-.253-2.8.165.128 1.525-.892 1.99.73 2.678M1377.583 132.733c-.414-.858 1.638-2.157-.15-2.466-.327.321-1.269 2.421.15 2.466"/><path d="M1439.146 207.55v-11.122h-20.074c.209-.548.548-1.079.802-1.62-1.09-1.068-2.624-.944-4.286-.457-1.486-.394-3.608-1.079-4.482-.723-.476-1.413-1.9-.225-2.643-.889-.786-1.668-.078-3.097 1.59-4.366-.401-.528-.805-1.052-1.208-1.582-1.65.463-4.062 1.459-4.717 1.55-.19.356-.18.741-.118 1.135.612 1.309 2.427-.69 2.841 1.154-1.12.923-1.582.005-2.4.075-.898.779-.628 1.748-1.515 2.53-1.457.479-2.833-.726-4.642-.287-2.368.573-4.193 2.08-5.735 3.48h-16.65c-1.264-1.649-2.459-3.373-3.34-5.145.181-.054.384-.14.622-.3-.176-.656-.566-.725-1.029-.58a13.456 13.456 0 0 1-.898-2.86c3.092-.5 6.927-1.344 8.352-3.614.125-.201-.42-.755-.243-.964.726-.827.467-.52.841-1.483.321-.851.027-1.992-1.293-2.982-.249.19-.15.436-.513.61-1.938-2.23-4.065-2.34-6.601-1.8-1.152-1.857-2.419-3.975-3.648-5.584l-.137-2.2c2.892-5.636-.283-7.785-.881-14.516.855-2.184 2.768-3.603 3.968-5.539 2.381-.38 2.52-2.382 5.792-2.12-.415-3.103 2.886-3.52 2.28-6.762-3.943-1.722-4.154 2.498-7.94 2.251-1.137 6.607-7.735 9.263-13.783 12.32-2.982.72-5.495-.832-7.507.458-.73 1.154-1.034 2.616-2.493 3.242-2.978-.49-6.679-.31-7.694-2.62.67-1.805 1.611-3.026.777-4.903-4.957-1.397-7.766 1.789-10 3.7-4.666 1.167-8.57 3.834-12.79 2.107a982.2 982.2 0 0 1-.241-3.96c2.033-4.272 7.06-6.387 9.035-10.705-.555-1.341-1.774-2.072-2.362-3.39-2.865-.329-3.982.046-6.967.426-1.516 2.645-.268 6.22 1.58 8.291-1.997.945-1.492 3.69-3.488 4.632-1.663-2.926-6.676-3.976-10.886-1.987-.865 2.254.452 3.47.375 6.158-4.624-.257-5.797 1.975-7.294 3.978.313 2.503 3.213 2.594 3.541 5.084-3.241 2.985-10.273 3.226-14.188 5.72-3.362 3.738-6.67 7.513-9.522 11.62.577 1.635.633 3.753 1.906 4.74-.289-.703 2.88-.896 2.68-.165 1.585 1.453-1.328 2.465-.799 4.465.021 1.37 1.759 1.151 1.253 3.012-.04.485-.133.929-.243 1.365h-7.603c.016-1.598-.377-3.124-1.94-2.974a20.35 20.35 0 0 0-2.756 2.974h-32.128c-.198-1.435-.521-2.725-.99-3.863.474-1.06.899-2.09 1.065-3.009 2.557 3.526 9.014 4.243 12.421 1.288 3.242-6.43-1.862-10.942-7.515-11.145-2.905 1.563-6.117 2.851-5.949 7.175-.026-.016-.045-.038-.072-.054-.708.61-.417 1.941-.355 3.11.024.386-.254.56-.53.732-1.76-2.988-4.332-5.07-6.734-7.336-1.443.52-2.828-.206-4.183-.629.027-.291.078-.591.19-.91-.403.222-.732.46-1.029.707-.07-.014-.144-.035-.216-.043-8.336-.937-17.243 1.229-21.535 6.942-1.542.503-1.216-1.082-2.357-1.028-.078 1.095.71 1.237.697 2.273-2.483.69-5.65.765-6.777 2.68-3.654.406-7.972 2.264-11.783 3.11h-5.757c-1.416-.546-2.55-1.676-3.244-3.724-1.724.097-3.45.19-5.174.279-.206 1.247-.495 2.412-.936 3.445h-12.493c1.077-.736 2.375-1.266 4.326-1.218-.601-3.025 1.476-.62 2.205-1.852l-.12-2.303c-1.323-.246-1.256.753-1.839 1.168-.318.032-.542.093-.786.147-.066-.006-.114.008-.187-.008-.042-1.789-1.9-1.545-1.37-3.97-3.475-.003-4.095 5.437-7.288 3.863.657-.26.518-2.835-.06-1.154-1.074 1.344-2.61 2.22-3.385 1.338-.054-.348-.123-.677-.612-.543 1.25 1.997.438 3.095-1.532 3.547.019.33.032.656.054.985h-4.041c-.021-.447-.045-.894-.072-1.344-.791.07-1.272-.203-1.753-.481.147.87-.297 1.199-.417 1.825h-13.897c-.04-.736-.08-1.467-.115-2.2-1.617-.726-3.03-.142-3.915.988-1.839.13-2.98.506-3.173 1.212h-4.337c.874-.225 1.873-.337 1.66-1.539 2.34-.337 4.9-.6 6.373-1.24 5.407-.441 12.973-.125 14.996-1.748-1.56-1.815-9.974-.538-13.122.217-10.198.01-19.675.276-26.46 1.478.155-.388.256-.817.195-1.333-1.353.09-1.746-.897-3.48-.388.505 1.55-1.077 1.223-1.024 2.366.094.118.212.196.321.29-.473.141-.989.27-1.419.43 6.48 1.275 13.956-.624 20.22.011.003.463-.067 1.01-.048 1.456h-15.778c-2.486-.27-5.212-.329-7.972-.3.28-1.255.267-2.62-.359-4.069-.585-4.214-6.042-6.031-10.03-4.7-1.515.505-2.292 2.417-3.693 2.647-.181 1.826-1.034 3.05-1.176 4.915-3.009-1.258-6.227-2.439-11.152-3.02-.96-1.507 2.288-2.824 3.744-4.15 2.58-1.36 8.36-1.595 8.75-3.712-2.357-.17-2.988.267-4.998.214-1.932.586-2.007 1.432-4.377 2.19-.559.176-1.956.032-2.496.211-.417.142-.158.53-.623.659-.922.249-2.793.399-3.755.653-1.072.292-1.903.755-2.496.875-1.566.327-4.808.303-6.874.876-.94.257-.865.72-1.873.872-1.571.239-3.998-.182-4.998.437-3.452-.388-7.389-.602-10.144-1.232.2-.254.36-.53.486-.821 2.795-.702 7.146-.86 11.527-1.007 2.552-1.07 8.445-2.302 6.253-3.713-4.49-.78-6.906.894-11.868.658.27.825-1.238 1.026-1.88 1.532-1.247.04-2.557.147-3.888.27-.467-1.63-2.116-2.838-4.097-2.838-2.287 0-4.137 1.604-4.227 3.614-3.622.236-6.895.137-9.033-1.046-.441-.814 1.069-.94.628-1.751-1.008-.067-1.644-.003-2.042.144-.823-.755-1.975-1.228-3.26-1.228-1.54 0-2.895.682-3.715 1.72-2.312-.465-4.17-1.091-7.855-1.075-2.467-.723-2.092-1.823-2.499-2.835-.328.929-.609 1.855-1.08 2.7a5.224 5.224 0 0 0-2.776-.786c-2.173 0-3.99 1.277-4.6 3.022-1.56.61-4.871.605-5.296 1.612-1.318.118-2.069.099-2.94.061.013-.136.045-.267.045-.404 0-2.519-2.3-4.562-5.142-4.562-2.15 0-3.99 1.176-4.751 2.844-1.254-.137-2.654.203-4.105 1.25-1.238.032-2.464.088-3.67.147-.184-2.514-2.517-4.511-5.4-4.511-2.724 0-4.96 1.783-5.359 4.099-1.336.565-1.657 1.293-3.728 1.954-.556.18-1.951.035-2.496.214-.42.142-.155.528-.626.659-.16.043-.376.08-.585.118.374-.675.601-1.425.601-2.225 0-2.808-2.57-5.084-5.74-5.084-2.72 0-4.99 1.684-5.572 3.94l-.014-.007c-.165.088-.318.174-.478.265-.032-.024-.048-.046-.08-.067-2.282-.396-4.025-.158-5.84.136a5.032 5.032 0 0 0-.903-2.12c3.624-.115 7.32-.996 11.03-2.115-2.497-2.47-5.549 1.06-8.253.889-1.243-.367-2.53-.185-3.838.163a6.431 6.431 0 0 0-3.976-1.354c-3.341 0-6.038 2.393-6.038 5.351 0 .522.115 1.02.27 1.5-2.09.192-4.225.428-6.31.62a5.068 5.068 0 0 0 .476-2.125c0-3.103-2.833-5.62-6.328-5.62-3.322 0-6.01 2.27-6.278 5.151-.882.148-1.06.538-.882 1.055-1.7.072-3.044.022-4.196-.099.016-.166.06-.324.06-.495 0-3.25-2.97-5.882-6.637-5.882-.026 0-.048.003-.072.005-.027-.002-.048-.005-.075-.005-2.453 0-4.567 1.191-5.716 2.945-.067-.278-.126-.56-.235-.838-.634 1.804-1.077 3.6-3.124 4.803h-1.783c.115-.07.233-.137.347-.206-.29-.501-.582-.99-.879-1.486-.027.158-.12.302-.23.439-.144-2.993-2.897-5.386-6.307-5.386-3.5 0-6.33 2.516-6.33 5.619 0 1.022.328 1.97.868 2.795a44.213 44.213 0 0 0-2.555-.03c-1.15-.366-2.66-.578-4.346-.704a4.827 4.827 0 0 0 .465-2.056c0-2.958-2.699-5.351-6.031-5.351-2.817 0-5.158 1.71-5.826 4.02-2.072-.12-4.276 1.221-6.398 1.599.005-.088.032-.174.032-.265 0-2.359-1.826-4.33-4.287-4.902-.102-.891-.385-1.866-.954-2.918-1.58.704-3.156 1.408-4.744 2.112-.053.849-.008 1.55.078 2.19-1.374.833-2.7 1.676-1.799 3.087.075.118.166.185.249.268-.003.056-.022.107-.022.163 0 .86.265 1.657.687 2.366-1.633.552-.909 1.706-2.614 2.241.49.825.981 1.652 1.468 2.477 2.14-.905 1.657-.616 3.466-2.067-.136-.265-.275-.52-.422-.769.908.53 1.988.844 3.158.844 2.28 0 4.239-1.194 5.161-2.91.55-.105 1.082-.198 1.569-.268.577-.359 1.045.498 1.55.961 1.365-1.215 2.622-1.164 3.894-1.341.072.211.139.426.238.62-.93.057-1.842.113-2.694.17-3.766 1.667-9.167 2.762-8.125 6.117.056.134.14.254.222.377h-12.574l-.27-.326c-.13.11-.262.217-.393.326h-.443c-.252-.423-.503-.84-.751-1.263-1.187.375-1.978.739-2.627 1.263h-13.774c.892-.38 1.63-.669 1.985-.717.246-.64.217-1.347.107-2.078-.922-2.433-3.362 1.12-4.04-2.289 1.53-1.622 2.215.091 3.356.014 1.176-1.328.826-3.039 1.89-4.396.742.037 1.49.01 2.252-.088.054.018.115.03.177.048-.038.23-.078.458-.078.693 0 1.189.5 2.262 1.304 3.106-1.622.548-1.44 1.558-2.59 2.23.343 1.965 1.829-.576 2.168 1.39 1.697-.534 1.515-1.543 2.62-2.228a6.008 6.008 0 0 0 1.931.326c3.01 0 5.439-2.157 5.439-4.824 0-1.229-.532-2.34-1.39-3.194.334-.313.663-.631.981-.963.18.08.363.147.543.24 1.397-1.975 2.937-2.109 5.307-4.433-.58-1.373-1.277-1.336-2.007-.956-.716-3.051-2.306-5.107-4.15-6.773-.11-2.235-2.176-4.02-4.723-4.02-.061 0-.117.013-.176.015-.142-.125-.297-.243-.436-.372-.042.185-.11.313-.179.429a4.787 4.787 0 0 0-.903.22c-.644-.327-1.4-1.305-1.87-2.244-1.104 1.065-1.898.864-2.369-.597-3.279.07-7.825 1.585-11.352.059-2.956 1.807-3.293 1.204-6.323 1.756-.407.326-.74.674-1.048 1.028-1.737.324-3.562 1.646-5.23 1.205-.206.663.395 1.4-.588 1.994 1.133.728 2.325.825 3.525.814-.756 1.63-1.63 3.231-3.704 4.527 1.138 2.535-.12 4.46-.81 6.527.462.589.976.977 1.52 1.237-.667.75-1.108 1.517-1.293 2.31-.582-1.78-2.421-3.092-4.62-3.092-2.673 0-4.84 1.922-4.84 4.294 0 1.676 1.093 3.11 2.667 3.817-.158.18-.31.32-.47.536-1.257.174-2.443-.544-3.336-1.582-.123-.332-.366-.694-.51-1.031a2.376 2.376 0 0 1-.075.241c-.521-.827-.869-1.748-.946-2.573 1.665-1.121 3.739-1.36 1.547-3.544 5.23-3.767 8.092-8.64 13.189-10.267.909-1.882-1.914.715-2.36-1.033-.246.224-.486.428-.724.64.117-.351.2-.713.2-1.098 0-1.668-1.194-3.07-2.86-3.612l-.301-.358c-.104.136-.203.182-.297.195-.059-.01-.117-.008-.179-.019a1.19 1.19 0 0 1-.334-.251.464.464 0 0 0-.19.206c-.061-.003-.117-.016-.181-.016-2.398 0-4.34 1.724-4.34 3.855 0 1.354.793 2.543 1.988 3.228-2.267-.47-4.546-.79-7.008.852-3.941-.062-7.755-1.564-12.01 1.775-2.03-.14-3.995-1.007-5.898-2.584.492-1.073 2.066-4.141 3.61-3.766.22-1.371.228-2.76.214-4.153.129-.04.252-.072.38-.12-.262-1.05.251-1.882-.337-3.028.091-1.78.38-3.545 1.288-5.25-2.621-2.83-4.03-6.55-4.794-10.264-2.9.482-5.465-2.782-8.18-4.425-3.296-.295-6.626-.201-9.972.018-.139-.249-.278-.497-.422-.75-.331.19-.67.376-1.002.568.059.1.072.188.088.276-.184.014-.374.022-.559.038-2.29 2.586-6.536 3.15-7.517 6.278-1.986.883-3.835.251-5.671-.514.679-2.319-3.06-4.345-3.247-4.8-2.064-.924.342 1.881-1.842 2.291-.347-.442.254-.798.513-1.183-3.864.554-7.402-2.517-11.716 3.033.364 2.62-1.983 5.006 1.326 7.897-3.237 1.489-4.212-.66-7.81.517-1.608 1.494-.13 3.266-2.062 4.73-1.927 1.711-3.408-1.507-5.161-1.697-1.272.65 1.28 4.8 2.582 3.1 3.53 4.975 2.247 15.447-5.009 10.19l-2.653 2.214c1.392 1.63-.035 3 2.432 4.727 1.467.375 3.13-1.485 4.57-.816 1.29 1.759.836 3.352-1.254 4.803 2.996 1.617 1.48 2.382 2.804 5.164-.762.891-1.457 1.065-2.064.225a8.988 8.988 0 0 0-.061 1.445c-.722-.805-1.46-1.555-2.237-2.16 1.97-2.985-1.863-7.218-5.885-3.716.064.552.14 1.106.666 1.697a1320.32 1320.32 0 0 1-3.098 2.586c.083.017.147.022.225.033a13.78 13.78 0 0 0-3.079 2.556c-.754.244-1.414.86-1.64 1.917.031.059.06.094.095.147-.136.212-.272.407-.4.632-.784.268-1.553.493-2.31.661.067-.048.15-.09.193-.147-1.799-.27-4.009-.316-6.077-.22-.1-.048-.204-.08-.302-.133-.65-2.57-1.59-4.658-2.708-6.401 1.275.021 2.6-.541 3.988-1.773.975-3.924-3.785-6.382-6.703-5.33.102-.348.07-.736-.203-1.188-3.84.47-8.242.648-9.693-3.138.256-1.055 1.897-1.727 3.226-2.487.78-7.624-7.97-3.531-12.607-4.792.401-1.298.065-2.808-1.258-4.583-3.445.658-5.826 3.962-9.375 3.303 1.472-.436 1.694-1.22.657-2.356-2.036.145-1.855.841-3.512 1.981.773 2.048.428 3.789-1.029 5.213-.652-1.74-.935-3.379-1.042-4.969a19.91 19.91 0 0 0 1.85-.377c.839-1.221 1.763-2.375 2.65-3.558.313.41.725.664 1.019.423-.377-.517-.342-.921-.356-1.336.968-1.368 1.842-2.811 2.392-4.498-.377-2.69-2.456-4.695-3.495-8.237-1.278-1.237-3.552-1.146-4.963-2.206.232-1.524 3.653-.648 3.097-2.771-1.895-.61-3.597-.185-3.18 2.2-6.876-.128-6.863 3.326-10.751 6.187-.615 2.755-.594 5.384.04 7.625-3.362 1.095-3.606 5.745-1.815 9.142-1.344 1.789-1.259-1.534-2.35-.656 1.38 2.027-1.929 1.666-2.73 2.201 2.702 2.401-1.13 4.974-2.44 2.704 2.69-.876 1.248-3.537.81-4.43-.468 1.204-2.173 2.813-4.012 2.267-.428-1.957 1.892-3.146.249-5.438-1.71 1.403-4.763 4.41-6.585 2.391-1.706 4.09-5.439 3.48-8.534 5.871a11.271 11.271 0 0 1-.31-.021c-.294.26-.577.535-.858.816-.892-.305-2.236-3.836-2.178-1.943.572 1.322 1.304 1.898 1.75 2.388a14.574 14.574 0 0 0-1.897 2.495c-1.387.144-2.9.08-3.674 1.245 1.034-.02 2.143-.298 3.207-.42a11.036 11.036 0 0 0-.813 2.27c-.545.165-1.32.356-1.267.16-.288 1.039.457 1.036 1.09.712-.149.948-.2 1.957-.087 3.055-.514.73-3.122-.204-1.852 1.207-.016.006-.006.022-.014.03-3.028.072-6.689.69-8.541 1.135-1.27 0-2.518.01-3.763.021-1.486-1.443-2.678-3.28-4.765-3.927.053-1.815-.572-2.726-.994-3.909a19.266 19.266 0 0 1 5.938-3.954c.454-.747.305-2.195 1.064-2.591 3.442.779 4.172-1.564 7.183-1.283 1.118-2.214 2.937-3.622 3.541-6.422 1.203-6.73-2.464-9.21-4.89-12.77-4.094-1.076-9.851-2.399-12.858.005-2.317-.283-2.65.287-4.415-.302-.168-2.209-2.867-2.206-3.73-3.81l-3.53-.24c-1.28-2.536-1.35-6.196-1.543-9.877-.43 2.035-.312 4.268-2.16 5.625a6.436 6.436 0 0 0-2.613.313c-.155-.05-.291-.112-.467-.15-.666.252-1.045.584-1.318.948-1.6.87-3.124 1.837-5.962 1.288.286-1.5.04-2.528-1.612-2.332-.425 1.617.62 1.949.198 3.569-3.51 4.818-9.848-.174-15.006-1.031-.382-1.05-1.422-1.529-1.115-3.183-3.538.238-5.016-3.266-8.292-1.901-1.745 2.744 2.245 5.518 3.902 7.817 3.736.613 7.464 1.237 9.054 3.73-2.04 1.627-5.31 1.844-8.154 2.548-.623-1.306-2.397-.567-3.469-1.124-.692-.356-.58-1.293-1.205-1.86-1.379-1.254-3.675-1.364-4.733-2.1-.404-.284-.925-1.255-1.646-1.89-.642-.565-1.946-.964-2.558-1.51-.313-.278-.075-1.047-.35-1.354-.358-.4-1.366-.174-1.737-.565-1.566-1.644-1.497-3.36-2.787-4.629-1.425-.003-1.812-.913-3.499-.685-.016 4.31 4.033 5.065 5.666 7.937.847 2.752 2.956 5.577 2.071 8.58-4.832 1.28-7.595 4.943-10.751 8.147-.807.032-1.695-.035-2.614-.128a4.03 4.03 0 0 0-1.606-.34c-.22 0-.43.026-.642.058-3.215-.452-6.71-1.006-9.73-.147.219 2.717 3.13 3.09 4.548 4.755-.523.035-1.245-.164-1.355.35 1.476 1.4 2.767 1.05 4.21.603.208.24.446.458.716.64-.377-.03-.732.042-1.04.358 1.644 1.194 5.14.771 5.08 3.457 1.863-.102 3.283.184 3.443 1.568.411-1.116 1.512-1.437 3.18-1.116.596.736.767 1.708.666 2.674-.321-.532-.733-.942-1.15-1.34-2.079-.046-1.502 1.913-1.224 3.64-.732.11-1.47.233-2.236.35-.129-.058-.233-.04-.321.044-.332.048-.666.096-1.018.134a4.294 4.294 0 0 0-3.127-1.32c-2.026 0-3.71 1.328-4.081 3.081-2.576.187-5.286.506-7.913.747l.002-.027c0-2.24-1.988-4.058-4.436-4.058-2.43 0-4.396 1.785-4.428 4.005-.866-.185-1.67-.426-2.341-.795-.439-.812 1.069-.94.63-1.749-2.311-.152-2.763.343-2.504 1.093-1.32.056-2.426.037-3.397-.03-.676-1.622-2.38-2.781-4.39-2.781a4.875 4.875 0 0 0-3.49 1.44 25.262 25.262 0 0 0-3.09-.16c-2.47-.726-2.095-1.824-2.502-2.838-.577 1.643-1.01 3.274-2.63 4.462-.649-1.828-2.503-3.159-4.719-3.159-2.718 0-4.92 1.995-4.97 4.471-.712.177-1.276.404-1.43.774-2.12.193-2.78.027-4.846 0 .038-.228.075-.453.075-.688 0-2.656-2.352-4.811-5.257-4.811-2.849 0-5.152 2.077-5.238 4.666-1.887.014-3.816.091-5.668.193 0-.019.005-.035.005-.054 0-2.794-2.475-5.062-5.524-5.062-.759 0-1.48.142-2.138.394-1.053-.37-2.325-.597-3.854-.638-.085.049-.165.1-.25.145.269-1.28.09-2.897-.894-4.722-1.579.706-3.161 1.405-4.746 2.112-.2 3.119.67 4.752 1.79 5.309a8.763 8.763 0 0 0-.814.923c-.722-2.18-2.908-3.777-5.527-3.777-3.207 0-5.802 2.377-5.802 5.314 0 2.937 2.595 5.314 5.802 5.314 1.68 0 3.183-.664 4.241-1.708.099.602.26 1.234.508 1.917 2.742 3.611 5.837 4.125 8.386 3.078.513.29 1.008.584 1.433.903-1.297.366-2.408 1.087-3.205 2.058h-5.823c-1.208-1.62-3.236-2.682-5.54-2.682a7.02 7.02 0 0 0-4.549 1.652h-5.053c-.46.133-.914.27-1.369.407-1.299-1.454-3.25-2.402-5.457-2.402-.024 0-.045.008-.07.008-.023 0-.045-.008-.066-.008-2.518 0-4.712 1.213-5.968 3.025h-3.763c1.446-1.03 2.635-2.388 3.327-4.069.319-1.523-.946-3.882-.435-5.3 1.018-2.85-2.953-3.684-3.696-6.094-.928-.359-1.9-.533-2.89-.626-.878-.49-1.9-.787-3.006-.787-2.111 0-3.942 1.044-4.955 2.588-1.566.897-2.963 2.046-3.995 3.435.019 2.618-1.446 4.455.019 7.842a8.654 8.654 0 0 0 2.346 3.011h-4.773c-1.16-1.416-2.99-2.342-5.07-2.342-2.079 0-3.907.926-5.064 2.342h-6.772c-.93-1.03-2.25-1.734-3.763-1.93-7.624-6.8-19.554-5.408-32.602-1.887-2.367-.977-3.952-2.712-4.455-4.653-.005-.024-.005-.054-.01-.078a4.908 4.908 0 0 0 3.38 1.317c2.603 0 4.707-1.93 4.707-4.31 0-2.385-2.104-4.315-4.707-4.315-.866 0-1.662.227-2.36.6-.136-1.088-.603-2.193-1.71-3.264.134-1.869 1.056-3.322 1.756-4.894.66.404 1.456.643 2.314.643 2.299 0 4.161-1.706 4.161-3.81s-1.862-3.81-4.16-3.81c-1.107 0-2.101.4-2.847 1.042-.54-.806-1.149-1.48-1.68-2.31-2.427-1.018-5.675-.651-8.986.28-.037-.01-.056-.04-.096-.048 0 .033-.016.051-.016.08-1.19.34-2.381.745-3.55 1.192a4.118 4.118 0 0 0-1.595.643c-2.742 1.14-5.235 2.396-6.988 3.244-1.31.204-2.39.29-3.378.348.043-.211.072-.43.072-.653 0-1.92-1.7-3.477-3.795-3.477-2.095 0-3.798 1.558-3.798 3.477 0 .63.198 1.21.516 1.719l-.026.008c-2.104 2.043-2.555 2.093-5.535 3.528-1.478-.026-2.905-.144-4.255-.417.16-1.363.26-2.793.078-4.503-1.174-2.287-2.822-4.094-3.453-6.92.778-.009.505-1.066.836-1.527 2.245.45 4.763.498 6.698-.358a2.95 2.95 0 0 0-.425-.787c.7-.458 1.234-1.08 1.526-1.944 1.218-1.21-.68-2.249-1.155-3.459-1.15-.222-1.975-.118-2.664.12-.174-.085-.377-.144-.69-.085l-.142.463c-1.098.643-1.902 1.577-3.41 1.81-1.135-3.285-2.865-5.973-6.333-6.92-1.045 1.017-2.045 2.088-1.73 4.47-.772-.053-1.44-.217-1.627.177a.9.9 0 0 1 .35.434c-1.903 1.164-2.015 4.12-3.325 5.873-2.036-2.187-4.556-3.892-8.057-4.612-.302-2.198-1.05-3.947-2.304-5.191-11.47 2.572-3.661-16.987-14.391-13.26-1.684 4.463-1.596 10.703-6.909 11.533-2.512-.557-3.183-2.966-5.182-4.037-4.96-.74-7.843 1.59-8.544 5.188h-.825c-.035.353-.086.685-.578.576v1.156h1.246c-.01 1.264.195 2.624.641 4.035-3.009 4.098-8.343 5.865-12.087 9.225-.495 2.773-1.828 4.706-4.028 5.77h-5.182c-.78 1.332-2.317 1.908-1.726 4.612.924 1.984 3.527 3.087 5.302 4.532.139.214.323.383.556.498.951.937 1.496 2.048 1.05 3.617 2.686-.576 3.218 1.007 2.878 3.462-2.375-.07-3.605 1-6.333.578-.37.693-.912 1.207-1.518 1.66a6.1 6.1 0 0 0-.82.57c-1.45.784-3.245 1.215-5.012 1.678-1.526-2.181-2.01-5.402-3.175-7.945-2.71-.552-4.305-2.22-5.754-4.037-.016-2.538 1.978-3.791 1.15-6.92-6.382-1.013-6.32 4.433-10.362 5.766-5.719-.613-12.266-.396-14.391-4.61-.513-1.794-.59-4.024-2.876-4.04-5.139 1.004-3.805 8.494-10.94 7.499-1.211-1.66-.624-3.403-1.15-4.616-1.857.935-3.402.064-4.605-1.151 2.406-.608 1.112-4.816 0-5.19-2.416.08-.382 4.614-1.729 5.766-1.81-.276-2.247.819-3.453 1.153-.026 1.899-.97 2.87-.577 5.189-3.255 1.542-3.635 5.97-7.483 6.92-2.002 3.81-6.128 5.488-7.91 9.517h-8.28c-2.704-4.636-8.48-5.919-13.167-3.172a13.843 13.843 0 0 0-1.938 3.172H41.28c-1.058-.45-2.154-1.006-2.784-.278a.848.848 0 0 0-.163.278H31.27a9.32 9.32 0 0 0-2.184-.846c-1.812-.439-3.183.766-4.647.287-.882-.782-.612-1.751-1.51-2.53-.82-.07-1.277.846-2.4-.075.414-1.845 2.229.155 2.844-1.154.058-.396.07-.782-.12-1.138-.655-.088-3.069-1.084-4.72-1.55-.398.53-.805 1.055-1.206 1.585 1.668 1.27 2.376 2.699 1.593 4.367-.748.663-2.167-.525-2.646.886-.497-.201-1.397-.06-2.354.168H0v232.755h4.487c.756 1.706 1.542 3.408 2.325 4.825v2.885c-3.463 7.13-.2 10.192 0 19.03-1.058 2.786-3.199 4.486-4.605 6.92-.962.115-1.6.546-2.207 1.015v7.74a3.64 3.64 0 0 1 1.63-.108c1.646-8.537 8.878-11.48 15.543-14.99 3.24-.7 5.821 1.527 8.06 0 .856-1.45 1.275-3.338 2.879-4.039 3.15.88 7.122.94 8.06 4.04-.836 2.307-1.921 3.823-1.154 6.342 5.206 2.217 8.423-1.722 10.938-4.035 5.065-1.15 9.413-4.326 13.817-1.734v5.19c-2.456 5.422-7.97 7.78-10.361 13.263.507 1.796 1.764 2.849 2.3 4.618 3.047.656 4.269.257 7.484 0 1.793-3.336.69-8.103-1.152-10.96 2.197-1.074 1.836-4.698 4.033-5.764 1.587 3.952 6.881 5.718 11.51 3.456 1.074-2.87-.26-4.562 0-8.069 4.926.702 6.329-2.12 8.06-4.618-.17-3.287-3.268-3.643-3.455-6.92 3.658-3.64 11.195-3.395 15.546-6.342 3.156-3.796 6.264-7.643 9.118-11.745h1.986c.23 1.012 2.603 1.508 3.036 2.051.588-.891 3.055-.803 2.683-1.59-.63.206-1.168-.078-1.678-.46h6.614c.401.203 1.077.222 1.31 0h23.08a2.193 2.193 0 0 0-.458.666c.652 1.387 2.56 1.012 3.795 1.462.096-.472 1.46-1.157.644-1.486-.697.367-.291-.15-.133-.643h4.644c2.884 1.261 6.829 1.583 8.74 1.973 1.031-.848 2.391-.792 3.714-.84a6.307 6.307 0 0 1-.32 1.965c1.087-.632 1.8-1.376 2.178-2.228.077-.026.16-.04.235-.07.425-.31.28-.532.005-.733.006-.018.008-.045.01-.067h3.852c.852.14 1.678.29 2.33.504-.737.053-1.771.005-1.87.262 3.757.996 6.232-.415 10.612-.455.698.134 3.258.656 1.898.835-1.628.675-5.113-.613-6.877.153 2.454.476 7.328.045 7.534 1.354 2.611-.166 4.637-.115 5.014.55.457-.571 1.98-.804 4.353-.756 2.314.814 1.104 2.533-1.176 3.09-2.373.425-3.918-.565-4.38-.12 4.602.537 7.315 1.718 5.711 4.023 1.23.418 3.488.455 3.779 1.229-3.541 1.448-11.249 1.544-18.71 1.726-.73 2.247 8.766 2.95 12.531 1.462.083.27.198.52 1.259.412-.607-.776 2.459-.364 3.739-.519 1.502-.308 1.403-1.135 3.728-1.175.19.002.323.024.502.03-.11.452-.115.942.137 1.512.609 1.381-.492 3.823-.067 5.317 3.46 6.982 15.33 7.72 18.745.23 1.675-.597 2.718-1.395 5.176-1.735 6.206.094 13.31-.142 15.658 1.4.316.37.5.79 1.016 1.087-.31.412-.623.817-.909 1.272-2.533-.22-4.318.76-6.694.79-.86 1.705-1.644 3.541-2.868 4.652-2.6-1.11-4.083-.412-5.866-.195-.791 1.296-1.745 2.342-3.033 2.838-3.688 8.25 5.973 12.149 11.433 9.217 1.045-1.154 1.149-3.828 2.309-4.79 3.17 1.256 4.826.06 7.122-.096 1.494-.677 1.454-3.847 3.295-3.96 2.435-.714 5.393-.567 8.373-.395 6.596 2.487 12.398 4.607 18.921 5.054 4.225-2.209 8.651-4.09 13.029-6.053.652.6 1.558.975 2.56.975 1.999 0 3.616-1.484 3.616-3.31 0-.596-.185-1.143-.484-1.624.577-3.194 3.044-5.995 5.9-6.69 9.18 3.747 12.805-1.492 18.532-3.328 8.063 4.192 15.693-.694 17.866-10.596 3.79.819 9.522 1.633 10.845-3.365.072-.27.085-.544.115-.812h3.6c-.458.23-.91.48-1.342.777-2.611 7.895-5.249 14.86-2.51 20.74 1.3 1.956 3.29 3.766 5.631 5.22.088.902.516 1.71 1.19 2.305-.02-.003-.035 0-.054-.003-1.301 3.419-7.357 1.585-8.878 4.765 1.702 4.25 9.99-.305 13.17 1.797 1.959-1.186 4.52-1.855 8.74-1.882.395-1.995 3.505-.983 3.067-3.895-.005-.753-.973-.63-1.1-1.272.208-.147.419-.292.622-.453.673 1.216 2.034 2.057 3.621 2.057.024 0 .045-.006.07-.006.02 0 .042.006.066.006 2.248 0 4.068-1.671 4.068-3.73 0-1.89-1.55-3.445-3.547-3.68a20.694 20.694 0 0 0 2.25-7.465c1.385-.827 2.304-2.254 2.304-3.884 0-2.302-1.841-4.206-4.24-4.573-2.65-2.757-6.404-5.327-10.42-6.824h4.876a6.287 6.287 0 0 0 4.573 1.936c.024 0 .045-.008.07-.008.02 0 .042.008.066.008 1.834 0 3.459-.76 4.573-1.936h7.64c1.059 1.028 2.553 1.674 4.215 1.674 1.665 0 3.154-.646 4.212-1.674h8.384a5.773 5.773 0 0 0 3.83 1.425c1.49 0 2.84-.547 3.834-1.425h9.204c.318.25.663.46 1.043.635-.634.294-1.12.626-.813 1.18.356-.163 1.184-.41 2.111-.744.34.062.693.094 1.05.094a5.496 5.496 0 0 0 3.397-1.165h7.21c-.285 1.387-.18 2.88-1.282 4.04 3.277.91 2.387 4.96 1.951 8.165.291-.085.585-.176.874-.262.26 1.654 1.606 2.982 3.367 3.33.43 2.552.206 4.276 2.192 7.196-.027.255-.091.496-.145.74a3.935 3.935 0 0 0-1.133-.177c-2.042 0-3.704 1.512-3.704 3.389 0 1.255.76 2.342 1.87 2.926-.4.693-.777 1.392-1.081 2.115 2.576-.39 4.72.908 5.334 3.606-.527 1.264-3.314 1.893-3.448 3.272 5.345-1.998 10.313-2.635 13.988 1.368-.417 1.011-1.702 1.785-1.66 2.923 3.975.399 8.208-.134 11.7 2-.89.6.647 1.874.126 2.575 1.31.862 3.175-.273 4.204 1.598 1.478 5.78-4.567 9.448-1.806 15.584 2.148-.1 1.53-1.285 3.225-2.482 1.676 1.57 3.432 2.857 5.556 2.82 3.464-5.152 8.729-4.769 11.725-2.648-.225-1.023 2.72-.82 3.792-1.48 4.677 3.943 10.481 3.835 15.089 8.03 5.802.927 12.935-2.95 20.252-7.458.008-5.392 3.643-7.766 7.828-7.665.16.488.219 1.069.823 1.103.724-.104 1.841-.13 2.907-.366 3.071 1.1 5.963 3.402 7.51 6.757-.721 3.839-.537 7.573 3.36 10.676 3.578.557 5.352-.575 9.155-2.52.74-3.886 1.171-7.86 2-11.717 4.262-3.183 3.72-7.713 4.57-11.846-1.775-2.434-3.94-5.33-6.815-7.408-5.95-.38-15.218.18-16.375-7.964-2.91-4.115-6.948-7.41-9.003-10.139-.193-2.031-1.898-4.484-3.175-6.818 2.007-4.404 10.024-5.138 12.162-7.892a6.33 6.33 0 0 0 1.19-1.508 36.578 36.578 0 0 0-1.86-.283c-.06-.833.01-1.872-.495-2.482-.69-.225-1.334-.621-1.951-1.098h15.038c.155 2.054.476 4.15 1.093 6.334 4.033 5.732 9.153 7.577 15.241 5.957 5.182-3.478 7.195-7.841 8.916-12.29h26.829c-1.71 1.263-3.819 1.935-4.987 3.533-.532.726-1.756 4.278-1.814 4.996-.479 5.536 3.52 9.881 7.905 12.665.168.362.502.53.916.54.292.17.583.357.874.515 2.651-.878 7.197-.584 9.092-3.81a10.647 10.647 0 0 0 1.761-1.686c2.753-.771 5.145-1.906 6.911-3.663-2.191.017-3.843.568-5.406 1.213 1.093-2.669.949-5.683.74-8.714-1.72-2.717-3.707-4.479-5.877-5.59h12.5c.24.6.719 1.05 1.496.986.519-.033.647-.445.65-.986h6.005c-.035.386.026.87.254 1.558 1.02.132 2.88-.578 2.303 1.154 2.879.153 4.522-2.053 6.198-2.712h1.702c.41.177.84.474 1.31.986.804-.121 1.213-.635 1.785-.986h2.322c.49 1.347 3.197.474 3.378 2.134-.31 2.002.853 5.47-1.154 5.77-3.704.25-3.498-3.417-8.058-2.308 1.494 5.008-2.808 4.21-2.878 7.659a4.286 4.286 0 0 1-.719-.006c1.644 1.087-2.587 2.584.126 2.579-.145-.324-.262-.638.219-.785.454.878 1.109 1.066 1.85.94.325-1.285.023-1.553-.21-2.142 1.973.032 2.521-1.355 3.916-1.906.128.452.016 1.14.572 1.156.732-2.01 4.083-2.382 6.336-1.729-.518 2.56-5.278.867-5.759 3.462 1.294 1.19 2.83.795 4.605-1.157 1.79 2.286 2.314-.343 5.182 0 1.927 1.582 3.608 3.871 1.726 6.345 3.915.305 4.54 3.908 6.911 5.764 5.287.28 6.54 4.596 9.782 6.917-3.226 5.724 6.978 3.714 4.032 9.234 5.728 1.502 6.171-1.242 10.936-1.735.091-.677-.099-1.633.578-1.727 3.113-1.105 8.081-.364 12.087-.578 1.053 1.663.936 1.807.577 4.04 4.325-5.028 11.273 1.413 18.997 0 6.43-1.826 4.425-12.098 8.634-16.151 2.138-.932 5.663-.477 8.635-.573 1.235-1.754 3.827-.857 7.486-1.154.657 2.5 2.985 4.792 5.754 3.459-4.236-6.407 2.13-9.777 5.791-13.3.641 1.537 2.296 2.64 4.244 2.64 2.512 0 4.546-1.805 4.546-4.03 0-.463-.104-.896-.267-1.311 1.878-1.384 5.778.11 8.715-.145.392-.833 1.007-1.381 1.75-1.745-1.005.787-1.651 1.924-1.651 3.21 0 2.371 2.162 4.288 4.84 4.288 1.092 0 2.09-.332 2.896-.873 1.16.52 2.317 1.034 3.475 1.548 2.568-4.755-.281-8.155-2.553-7.574a4.574 4.574 0 0 0-1.157-.972c4.672.627 9.806 2.214 10.818-.768-1.913-2.506-6.112-2.717-8.634-4.613-5.744-1.536-8.197 1.93-12.663 1.157-1.01-2.302-3.065-3.558-4.906-5.02h8.696c.978 1.01 2.408 1.663 4.027 1.663 1.62 0 3.052-.653 4.03-1.663h5c-.705.445-1.309.927-1.563 1.529-1.037 3.357 4.362 4.452 8.127 6.117.356.024.74.048 1.107.07-.158.134-.316.27-.473.401.099.118.192.236.291.348-2.149.55-3.728 2.281-3.728 4.364 0 2.52 2.301 4.557 5.136 4.557 2.841 0 5.145-2.038 5.145-4.557 0-2.294-1.919-4.176-4.41-4.492l.439-.367a5.167 5.167 0 0 1-.407-.136c5.402.305 11.68.45 15.023-.621 3.29.053 3.706-.23 6.245 0 .452 1.078 4.25.985 5.626 1.745h4.53c-1.251.934-2.066 2.316-2.066 3.88 0 2.807 2.57 5.088 5.735 5.088 3.172 0 5.738-2.28 5.738-5.089a4.59 4.59 0 0 0-.495-2.045c3.08-.319 4.768-1.127 8.082-1.363-.88.93-1.427 2.107-1.427 3.414 0 2.958 2.702 5.354 6.03 5.354 1.015 0 1.96-.241 2.8-.635.144.4.262.8.283 1.192 1.542-.239 1.812-1.344 1.531-2.493.877-.931 1.422-2.11 1.422-3.418 0-2.129-1.408-3.95-3.437-4.811 3.12-.803 7.513-.386 11.954.083-1.769.993-2.953 2.733-2.953 4.733 0 3.1 2.836 5.616 6.332 5.616 3.498 0 6.328-2.516 6.328-5.616 0-1.456-.639-2.774-1.662-3.77.678.306 1.467.57 1.264 1.19 2.352-.11 4.126.203 5.826.481a5.274 5.274 0 0 0-.457 2.11c0 3.25 2.969 5.879 6.633 5.879.024 0 .05-.006.072-.006.024 0 .048.006.075.006 3.661 0 6.63-2.63 6.63-5.88 0-3.255-2.969-5.89-6.63-5.89-.027 0-.05.006-.075.006-.021 0-.048-.005-.072-.005-1.288 0-2.477.34-3.493.902a7.714 7.714 0 0 1-.722.113c-.807-.268-1.582-.52-2.167-.771-5.326-.18-10.642-.362-13.12-1.53 2.721-.872 7.305-1.086 11.25-1.533.999.624 3.43.203 4.994.439 1.013.153.936.616 1.879.87.409.118.88.203 1.36.276-.101.126-.203.251-.246.436.733.032.797.739 1.724.576a1.885 1.885 0 0 0-.155-.838c1.588.158 3.212.222 4.185.428.599.12 1.427.584 2.499.876.962.254 2.836.406 3.755.653.468.128.206.514.62.658.329.107.973.1 1.55.118-1.323 1.028-2.173 2.522-2.173 4.206 0 3.1 2.833 5.616 6.337 5.616 3.498 0 6.33-2.516 6.33-5.616 0-.594-.133-1.162-.325-1.697.053-.003.099-.003.16-.008-.061-.322-.272-.587-.542-.828-1.048-1.825-3.162-3.084-5.623-3.084-.77 0-1.505.14-2.186.362-.131-.057-.286-.107-.401-.169-1.457-1.32-4.704-2.64-3.747-4.147a41.273 41.273 0 0 0 3.124-.498c.97.426 2.05.68 3.21.68 2.8 0 5.206-1.408 6.438-3.459h5.502c1.192 1.845 3.413 3.103 5.984 3.103 2.459 0 4.607-1.14 5.84-2.851 2.41.878 5.577 1.494 9.302 1.917a7.185 7.185 0 0 0 2.79.573c.538 0 1.053-.075 1.559-.185 5.403.385 11.609.495 18.106.5 3.148.758 11.564 2.035 13.122.22-1.665-1.333-7.07-1.36-11.946-1.571.863-.415 1.614-.99 2.164-1.706h8.301c1.045 1.224 2.689 2.022 4.554 2.022 1.863 0 3.504-.798 4.549-2.022h9.348c.978 1.01 2.413 1.663 4.03 1.663 1.62 0 3.055-.653 4.036-1.663h10.385c.895.8 2.135 1.299 3.512 1.299 1.373 0 2.61-.498 3.509-1.299h11.534a4.854 4.854 0 0 0 2.884.943c1.1 0 2.1-.364 2.889-.943h8.864c-1.777 1.366-3.926 2.453-3.947 5.14 6.173 1.288 13.512-1.924 18.886-2.104 4.402 3.863 8.333 8.35 14.729 9.552 1.43 3.815-1.04 7.684-1.88 11.335-1.846 3.88-7.036 5.245-6.6 10.84 2.21.134 2.621-1.084 4.474-1.22 1.55-1.773 1.301-3.995 3.182-6.279.441-.538 1.772-.342 2.2-.894.329-.426-.056-1.4.326-1.794.74-.763 2.397-1.408 3.178-2.2.873-.892 1.459-2.203 1.953-2.608 1.307-1.055 4.276-1.416 5.944-3.175.761-.798.526-2 1.392-2.532 1.34-.82 3.71-.03 4.394-1.789 3.757.648 8.023.619 10.823 2.538-1.828 3.384-6.606 4.546-11.398 5.702-1.93 3.135-6.85 7.119-4.324 10.514 4.383 1.461 5.965-3.229 10.586-3.253-.556-2.12.743-2.84 1.144-4.24 6.609-1.599 14.37-8.683 19.375-2.758.708 2.059-.622 2.589.078 4.65 2.167.1 2.392-1.26 1.873-3.18 6.385-1.724 7.919 3.022 13.678 2.13 2.523 1.585 2.582 4.495 3.333 7.095-.094-4.795-.353-9.547 1.066-12.96l4.562-.653c.967-2.158 4.47-2.415 4.482-5.296 2.236-.937 2.72-.222 5.703-.81 3.885 2.668 10.599.821 15.72-.892.25 2.32.304 4.685-.901 6.939-2.972 2.79-6.203 5.322-9.21 8.077-8.84 1.328-11.673 8.679-17.841 12.684v4.615c4.765 1.036 8.258-3.964 12.66-5.19 4.265-5.341 12.164-7.041 19.575-9.226.321-.833.898-1.41 1.724-1.73 5.28.167 7.04.528 10.361 2.881.917-.696 2.224-1.01 3.477-1.368.265.182.556.343.858.477-1.478 4.685-4.987 7.335-9.514 8.965.278 1.818-1.766 1.304-1.15 3.462 2.764 2.463 6.888.203 8.636-1.735 5.676-1.052 9.108-4.358 12.8-7.405.453.504.904.999 1.591 1.52v.7c.38.064.604-.027.8-.148.528.335 1.159.688 1.974 1.069.42-.528 1.098-.073 1.775.388 1.56.195 3.79-2.455 4.444-.707.42-.538.746-1.456 1.374-1.191.55-.731.927-1.42 1.256-2.094 2.036 1.12 3.797 2.517 5.07 4.412-.233 1.111-2.636.048-1.727 2.305 1.01 1.06 2.002.07 1.726-1.727 3.074-.195 3.445 2.319 5.76 2.878-.075 1.54-.385 3.39-.674 5.459a4.82 4.82 0 0 1-.117.198c.029.019.053.032.082.048-.336 2.447-.625 5.194-.446 8.139 3.017 1.41 3.915 4.642 7.486 5.19 5.203.796 11.724-2.837 15.54-4.615.559-11.131-3.407-17.728-11.51-20.183.31-3.946.89-2.208 0-5.766 1.657-1.71 1 1.445 2.876 1.156-.113-1.978-1.224-2.918-1.152-5.772 2.547-3.06 6.358 1.53 8.06-2.88-3.015-1.05-4.888.313-6.331-2.308 4.498-2.412 9.979-3.844 10.938-9.804 3.787-.856 6.67.126 9.488 1.398-.091.08-.182.166-.27.24.74 3.49 4.324 4.507 6.665 6.158.363-1.017 1.523-.072 2.08.806.817-.616 1.37-.525 1.68.262 2.344-.12 5.631-1.057 8.124-.307 2.152-1.063 2.382-.734 4.56-1.111 2.619-1.663 2.103-3.823 5.233-5.4-.77-1.355.173-2.439.708-3.585-1.088-1.065-2.625-.942-4.287-.452-1.483-.397-3.605-1.082-4.476-.728-.481-1.414-1.903-.223-2.649-.887-.786-1.67-.077-3.1 1.59-4.369l-.454-.597h5.006c-.153.498-.08 1.012.446 1.355.337-.321.754-.327 1.285.094.377-.55.433-1.018.348-1.449h.125c.187.102.35.22.45.37.098-.123.315-.247.56-.37h2.836l.412.247c.05-.083.101-.164.15-.247h25.506c.662.105 1.357.1 2.065 0h32.23c1.714 1.794 3.691 3.411 6.11 4.078 2.512.69 4.498-1.601 6.513-.814 1.208 1.378.775 3.17 1.99 4.54 1.14.08 1.829-1.63 3.358-.008-.677 3.405-3.117-.144-4.039 2.29-.107.73-.141 1.434.107 2.074.909.12 4.239 1.804 6.524 2.551l1.766-2.977c-2.266-2.227-3.183-4.8-2.004-7.903 1.082-1.263 3.012.833 3.75-1.796 1.202.605 4.209-.792 6.31-1.601 2.004.683 3.88.87 5.382-.434h60.492V216.991c1.352.083 2.776.533 3.728-.246 2.897-.827 3.755-3.119 4.126-5.764-.818-2.779-4.378-4.141-7.854-3.432Zm-631.85-16.669c.222.212.462.402.722.579-.302.061-.57-.033-.722-.579Zm-329.409-18.863c.04-.428.561-.302.912-.383-.043.431-.564.308-.912.383Zm6.115 1.31c-.521.51-1.219.291-1.948-.035.128.016.256.04.39.04.66 0 1.27-.169 1.812-.44.077.199.037.365-.254.434Zm1.422-1.342c.384-.45.649-.982.753-1.571.97.235 1.983.926 2.36 1.445-.74 1.497-1.94.702-3.113.126Zm291.908 264.522c-.71-.252-1.184-.739-1.154-1.73.71.252 1.18.737 1.154 1.73Zm-506.32 6.993c.262-.049.516-.097.818-.132-.174.1-.315.22-.497.311-.152-.027-.302-.056-.457-.083.048-.03.09-.067.136-.096Zm218.554-258.512c.564.902.871 1.968.836 3.242-.593.03-1.218.032-1.849.032.059-.04.112-.067.174-.123-.035-.064-.07-.131-.11-.196.479-.331.9-.728 1.13-1.343-1.517-.033-2.808.324-4.067.66a3.64 3.64 0 0 0 .847-1.646c.484-.018.97-.034 1.46-.053a25.13 25.13 0 0 1 1.579-.573Zm629.781 11.287a.61.61 0 0 1 .187.152h-1.55c.444-.053.9-.104 1.363-.152Zm-172.945-6.12c.85-.45 2.055-.777 3.298-1.087.136.385.315.747.553 1.084-1.489.868-2.405 1.936-1.922 3.496.498 1.181 2.307 1.904 3.68 2.78h-.475c-2.421-.9-5.155-1.687-8.884-2.124-.954-1.507 2.29-2.827 3.75-4.15Zm-31.963.923c1.106 1.14 2.731 1.88 4.565 1.88 2.178 0 4.075-1.039 5.13-2.576l.396-.016c.906-.38 2.232-.781 3.472-1.202-.222.442-.324.913-.227 1.435 1.186 1.534 3.22.983 4.367-.203.328.452.753.84 1.224 1.175-1.326.112-2.742.244-3.835.549-.944.257-.866.717-1.874.87-1.569.24-3.993-.182-4.997.436-3.945-.444-8.528-.658-11.249-1.528.762-.362 1.815-.619 3.028-.82Zm-129.215 5.35c-.588-.292-1.133-.646-1.403-1.179-.054.089-.158.172-.251.257a6.841 6.841 0 0 1-.77-1.39 8.883 8.883 0 0 0-.46.255 229.24 229.24 0 0 1-.876-1.56c-1.705.655-1.997 1.7-.88 3.137.008-.005.02-.008.025-.013a3.469 3.469 0 0 0-.257.492h-6.962c.326-1.028 1.935-1.935 1.299-3.046 1.419-2.086 2.536-.905 3.835-1.698a5.24 5.24 0 0 1 .12-.878 4.232 4.232 0 0 0 1.304-1.716c1.687-.741 4.538.078 6.756-1.989-1.555-.958.332-1.606 1.03-2.361v-.003c.427.166.852.324 1.271.469-.5.701-.796 1.526-.796 2.417 0 2.517 2.298 4.557 5.14 4.557 1.068 0 2.062-.29 2.883-.785-.329 1.414-1.139 2.704-2.347 3.893.228.377.455.757.68 1.14h-9.341Zm-79.087-35.885c-.909.996-1.756 1.347-2.58 1.403-2.538-3.03 1.76-3.7 2.58-1.403Zm-50.612 23.259a3.91 3.91 0 0 0-.168.568c-.123-.083-.246-.18-.372-.257l.54-.311Zm-35.01-13.988c-1.314-.846-3.38 1.004-4.422-.811.112-.118.157-.225.24-.338 1.28.46 2.755.68 4.436.597-.08.185-.139.378-.254.552Zm-42.439 20.66c.088.267.126.546.03.85 1.66.033 3.217.153 4.481.536.1.15.222.31.377.477.24-.051.468-.043.687-.022.19.105.409.188.57.316.157.01.29-.005.443 0 1.33.683 2.443 2.136 4.07 1.74-.032.04-.048.083-.077.123a8.922 8.922 0 0 0-2.125 1.933h-8.47c1.225-.64 2.291-1.488 2.393-2.674-1.633 1.312-2.753.787-4.073.977.954.889.254 1.314-.61 1.697h-2.207c-.687-.5-1.387-.98-2.082-1.467-.63-1.055-1.606-1.93-2.95-2.522-.243-.267-.492-.527-.708-.832a5.031 5.031 0 0 1-1.462-.378c3.792-.291 8.525-.251 11.713-.755Zm-99.537-4.305c.16.412.396.787.692 1.121-.804.225-1.793.241-2.848.18a15.225 15.225 0 0 1-1.513-.378c.895-.423 2.17-.712 3.67-.923Zm-74.608 8.97c1.208.212 2.563.373 4.704.258.818.174.78.647 1.01 1.03h-4.279a6.12 6.12 0 0 0-1.435-1.287Zm-156.814 1.288h-3.335c.414-.203.831-.417 1.246-.669a16.98 16.98 0 0 1 2.09.67Zm-91.444-3.665c-.484.659-.922 1.44-1.286 2.383-.74-.295-1.31-.76-1.814-1.288 1.004-.436 2.028-.824 3.1-1.095Zm309.373 289.904c-.949.378-1.63-.22-2.135-1.443.868-.463 1.09-1.108.938-1.855 1.852-.12 1.256 2.56 1.197 3.298Zm38.337-53.484h4.808c-1.708.37-3.325.426-4.808 0Zm421.548 0h1.39c-.508.057-1.016.105-1.513.201.048-.067.083-.136.123-.2Zm17.208.348c.094-.115.182-.227.262-.348h7.326c.157.204.344.38.526.563-1.264-.177-2.566-.34-3.707-.56-1.397.265-2.88.34-4.407.345Zm323.74 1.352c.615 1.31 2.43-.69 2.847 1.154-1.128.926-1.587.006-2.405.075-.898.78-.626 1.751-1.513 2.533-.62.2-1.224.101-1.847-.046.377-.5.075-1.545-.227-2.168.727-.335.786-.777 1.505-1.117-.203-1.065-1.318.36-1.52-.706-1.24.34-1.107.902-1.962 1.3.16.81.836.188 1.242.306-.636.522.393 1.45.503 2.273-.72-.174-1.478-.338-2.336-.129-1.79.431-3.268 1.403-4.551 2.452-.612-.69-1.78-1.242-2.772-1.836-.489.825-.98 1.65-1.467 2.474.289.136.516.305.727.487-2.632-.69-5.174-1.465-6.323-3.636-2.731.426-3.96-.653-6.334-.578-.342-2.455.187-4.037 2.876-3.461a3.746 3.746 0 0 1-.14-1.077h1.278c.158.158.292.314.321.45.703-.254 1.611-.252 2.395-.45h8.57c.313.407.618.809.928 1.213 1.24-.335 1.894-.632 2.498-1.213h9.616c-.804.287-1.483.522-1.79.565-.19.354-.177.742-.118 1.135Zm173.534-221.888c.043-.362.665-.297 1.098-.372-.037.361-.663.3-1.098.372Zm2.231-.137c-.005-.3.444-.265.727-.35.008.297-.44.265-.727.35ZM961.643 115.757c-.315-.438-.843-.342-1.098-.942-.396.168-.792.333-1.188.504.258 1.386 1.329.774 2.286.438M971.175 124.978c-.321-.459-.006-.657.345-.843-.39-.657-1.299-.045-2.04.16.216 1.103.939.926 1.695.683"/><path d="M992.86 138.473c3.89-2.708 2.142-9.783-2.559-9.462-1.053.855-1.952 1.782-3.736 2.322-1.968 4.494 1.466 9.281 6.295 7.14M1003.644 144.752c-.317-.432-.846-.34-1.1-.936l-1.188.5c.258 1.39 1.326.775 2.288.436M993.373 108.477c.399-.168.792-.336 1.194-.504-.243-1.032-.996-.786-1.353-1.53-.795.12-1.326 2.586.159 2.034M1013.277 159.385c.371-.219.737-.438 1.11-.657l-.663-1.113c-.37.219-.739.441-1.11.66.218.369.443.741.663 1.11M970.541 166.572c-.375.219-.744.441-1.116.66.378.99 1.092.645 1.548 1.335.777-.228.963-2.745-.432-1.995M951.625 151.212c-.644-.617-.16-.98.375-1.33-1.057-.919-2.254-1.333-3.897-.178.493.702.367 1.262-.103 1.744.994.686 2.128.864 3.625-.236M970.385 181.724c-.222-.373-.444-.738-.66-1.11l-1.11.66c.219.371.441.74.66 1.113.372-.222.741-.441 1.11-.663M938.164 182.829c.555-.33 1.113-.66 1.665-.993-.327-.555-.66-1.11-.99-1.665-.555.333-1.113.663-1.668.993l.993 1.665M920.927 181.462c.561-.33 1.113-.66 1.668-.99-.147-2.11-3.44-.144-1.668.99M837.73 179.617c-.423-1.416-1.527-.159-2.103-1.005-1.245 1.044 1.095 2.796 2.103 1.005M787.928 145.461l1.668-.993c-.144-2.103-3.447-.138-1.668.993M780.002 134.502c-.558.33-1.107.66-1.668.99.43 1.41 1.53.16 2.103 1.006.597-.48-.132-1.287-.435-1.995M776.942 139.85c-.715-.896-1.707-.695-2.884.21.33.559.66 1.11.99 1.669 1.042-.522.774-1.374 1.894-1.878M785.26 163.161l.993 1.668c.291-.639.591-1.263 1.11-.657.534-.183.393-.531.225-.888-.222-.369-.44-.741-.663-1.113-.558.33-1.107.66-1.665.99M771 150.204c-.407-.734-.822-1.47-1.235-2.204-1.215.453-1.162 1.25-1.765 1.867.651 1.554 1.732 1.354 3 .337M42.992 119.13c.135-2.08-1.587-2.123-1.585-4.057-4.426-.657-3.614 3.274-2.642 5.797 2.476.587 3.003-.958 4.227-1.74M25.145 92.852h-1.29v1.296h1.29v-1.296M27.824 102.146c.048-.903-.144-2.47-.648-1.293-.045.906.147 2.472.648 1.293M161.097 168h2.875c-.077-1.811.567-4.332-1.724-3.964-.761.946-1.522 1.898-1.151 3.964M199 126.763c2.026-.855 1.58 1.34 2.999 1.233.673-.404.931-1.32 1.001-2.47-1.09-1.164-3.521-.238-4 1.237M218.392 129.724c-1.959 2.175 2.391 1.962 0 0M27 125.975c-1.394-1.604-.921-3.082-3-2.969 1.046.806 1.691 3.27 3 2.969M197.946 138c-3.472 1.877-4.316 6.308-6.946 9 2.512-2.441 7.58-5.373 6.946-9M56.915 167.798c.472-1.54-1.088-3.648-2.81-3.798-.498.77.831 4.959 2.81 3.798M88.53 118.469h1.94v-1.938c-.761.102-1.835-.111-1.94.645.5.147 1.275.018 1.296.648-.504.144-1.278.018-1.296.645M40.469 176.965c-.02-.768.25-1.227.531-1.673-.15-.18-.597-.368-1.121-.5-1.028-.76-1.996-1.303-2.879-.03.182.12.322.216.443.296-.057.073-.123.138-.15.234.641.117.327.617 0 1.115.626.643 1.873.633 3.176.558M86.47 166.445v-1.941c-.761.102-1.835-.111-1.94.648 1.02.057.507 1.647 1.94 1.293M104.302 167c-.63 1.745-1.664 3.077-1.174 5.958 3.39.6 3.776-5.45 1.174-5.958M112.279 170.954c-.114-1.925 1.518-2.844-1.293-2.954-1.026.883-.945 3.366 1.293 2.954M141.34 175c2.772-.162 3.962-2.17 3.595-6-2.4.379-4.851 3.284-3.594 6M162.147 182.425c-.726.066-1.008-.936-1.293 0 .005.654 1.13.813 1.292 0M153.206 184.168c1.206-.087 2.163-.423 2.589-1.29-1.476-.18-2.433.156-2.59 1.29M251.963 159.307c-2.624-.97-4.697 1.935-3.714 2.583.635-1.488 4.146.02 3.714-2.583M28.706 172.875c10.902 1.258 14.317-7.155 11.18-15.91-4.13-2.335-4.586-5.827-11.18-4.711.078-2.475-1.617-2.656-3.353-1.764-.252 2.226 2.92.848 3.353 2.354-1.215 1.275-3.41 1.51-4.472 2.946-.516 3.733-2.24 6.058-2.234 8.836 1.593 3.419 4.386 5.59 6.706 8.249M59.932 136.002c-1.862 1.966-.76 3.74-1.932 5.663 5.265 4.015 3.976 10.56 8 13.335-.484-5.248-4.359-10.272-2.456-15.673-1.247-1.156-1.776-3.403-3.612-3.325M343.154 182c4.512-.71 3.309-5.592-1.154-3.47.119 1.203-.215 2.839 1.154 3.47M817.157 160.148c1.329 1.514 4.799.978 5.843-1.348-.019-2.381-1.672-1.482-2.754-3.8-2.53 1.288-3.693 2.963-3.089 5.148M818.291 140.525c-2.032-3.282-7.781-.797-7.257 3.015 2.07 4.12 10.425 3.033 7.257-3.015M787.28 156.614c.417.753.843 1.503 1.269 2.253 2.415-.78.648-3.92-1.27-2.253M815.417 134.185c-.163-.363-.295-.714.245-.879-.21-.377-.423-.752-.633-1.125-.563.315-1.127.636-1.692.951.316.561.634 1.125.955 1.686.371-.207.75-.42 1.125-.633M803.552 132.704c-.378.207-.753.42-1.13.636-.094 1.875 2.843.576 2.01-.39-.36.162-.715.288-.88-.246M762.637 163c1.103-.57 2.13-1.162 2.363-1.986-.43-1.135-1.01-1.7-1.66-2.014-1.952 1.601-1.385 2.2-.703 4M764.255 139.379c.373-.21.75-.42 1.123-.633-.21-.378-.42-.75-.637-1.125-.371.213-.746.423-1.119.633.21.378.423.75.634 1.125M667 192.078c-.478-1.134-1.333-.882-1.83-1.932-2.663 1.065-.227 4.131 1.83 1.932M794.473 115.387c.216.378.423.756.636 1.128.612-.459 1.653-.801 1.37-1.512-.746.411-1.07-.699-1.76-.492.159.36.29.714-.246.876M824.855 94.819l1.683-.951c-.315-.561-.636-1.125-.948-1.686-.375.21-.747.422-1.128.632.375.739-.282 1.189.393 2.005M790.082 108.466c.905-.475 1.182 1.622 1.995 1.531.622-.4 1.247-.798 1.872-1.202.317-1.099-.96-2.698-.645-3.795-1.925.741-3.712 1.071-3.222 3.466M774.315 116.685c2.557 1.655 9.93-3.593 8.503-6.94-1.746-2.753-4.466-1.826-7.402-.114-.755 2.236-2.004 4.332-1.101 7.054M818 78.252c-.365-.75-.723-1.5-1.083-2.25L815 77.271c.623 1.908 1.624 2.235 3 .981M675.497 170.368c.342-1.278-.399-2.65-2.076-1.056.52.987 1.245 1.197 2.076 1.056M771.378 110.746c-.21-.378-.423-.753-.634-1.128-.375.21-.75.423-1.122.633.21.378.418.753.634 1.131.375-.213.75-.429 1.122-.636M803 84.256c.071 1.458 1.095 2.853 2.79 4.744 2.842-.594 4.79-2.692 4.054-5.31-2.178-.16-3.936-1.772-6.844.566M696.944 150.63c.439-1.798-1.781-3.822-3.944-1.763.111 1.927 1.773 2.637 3.944 1.764M792.995 93.027c.153-1.804-2.933-2.694-4.995-1.444 1.143 2.178 4.144 3.381 4.995 1.444M673.792 142.368c-.838-.219-1.559-.88-2.792.39.626.547.796 2.783 1.743 2.12-.408-1.059 1.954-1.306 1.049-2.51M689.035 152c.564-.295 1.125-.59 1.686-.888-.423-.703-.846-1.41-1.266-2.112-1.578.624-1.41 1.707-.42 3M738.167 121.46c-.852.559-1.995 1.03-1.056 2.08.378-.21.75-.424 1.13-.637-.323-.558.07-.924-.074-1.443M778.066 97c1.302-.688 2.573-1.295 3.574-1.076.534-1.145.56-2.406-.516-3.924l-2.722 1.273c-.415 1.379.8 2.168.447 2.767-.357.298-1.068.512-.783.96M695.863 142.488c-1.165.069-2.421-.864-2.863 1.026.568 2.37 3.683.675 2.863-1.026M648.54 171c2.042-1.074 1.764-2.874.264-4-.575.364-1.148.728-1.725 1.09-.39 1.443.759 1.862 1.46 2.91M797.306 85.654c-.505-.977-.675-1.87-.138-2.576.608.704.952-.394.793-1.069-1.492-.171-3.845 2.154-2.62 3.991.726-.332 1.164.252 1.965-.346M735 120.4c-.347-3.214-5.022-2.683-8-1.386 2.116 1.79 5.765 4.899 8 1.386M706.597 136c1.947-.825 1.44-2.425.989-4-.99.904-1.457-.314-2.529.926-.293 1.05.592 2.815 1.54 3.074M756.197 61c-1.237.476-1.852 1.122-2.197 1.843 1.231 2.406 4.504.7 2.197-1.843M641.337 168.415c.216.375.423.746.636 1.125.565-.319 1.129-.636 1.69-.954a377.07 377.07 0 0 1-.636-1.126c-.559.319-1.125.636-1.69.954M802.886 73.162c-.85-.108-1.773.105-2.886 1.02 1.06 3.369 3.56.963 2.886-1.02M657.793 153c-2.572 1.114-1.687 3.142-1.47 5 2.862-1.29 3.552-3.648 1.47-5M716.973 121.691c-.454-1.739-.216-3.28.027-4.828-2.282.028-3.919-2.328-7 .63.032 2.26.413 3.646 2.347 5.507 1.458-.128 3.238-1.44 4.626-1.309M797 150.978c1.922.786 4.133 3.85 6 .458-1.26-2.807-5.613-3.482-6-.458M793.097 76.1c.366-.375 1.098-.642.81-1.2-.37.375-1.107.642-.81 1.2M703.369 125c3.6-1.374.529-5.918-2.369-3.09.202 1.673 1.05 2.092 2.369 3.09M723.746 111.621c-.375.21-.747.423-1.125.633.213.372.423.747.636 1.125.375-.213.75-.423 1.122-.633l-.633-1.125M693.68 129c.439-.296.882-.587 1.32-.88-.443-1.308-.162-2.724-1.486-3.12-.888.438-.691 1.23-1.514 1.693.434 1.296 1.022 1.947 1.68 2.307M778.576 75.368c-1.127.593-.392 1.602.438 2.632 1.172-.758 1.722.259 2.986-.78-.901-1.316-1.682-2.967-3.424-1.852M804.801 61.713c-.315-.564-.63-1.128-.95-1.692-.943.843-2.305 1.566-1.297 2.958.75-.426 1.497-.846 2.247-1.266M696.077 121c1.023-.261 1.476 1.494 2.892-.15-.018-2.466-3.363-1.227-2.892.15M720.613 107c1.39-1.515 2.7-3.05 3.377-4.776.109.162.206.319.328.478 1.277-2.767 3.236-5.463-.423-8.702l-2.106 1.858c.402 1.704.6 3.39 1.465 5.137-1.58.741-3.923.984-4.254 2.969 2.013.032 2.845 1.183 1.613 3.036M794.979 65.152c-.522-2.085-1.857-1.275-2.958-1.302.525 2.079 1.857 1.275 2.958 1.302M764.704 80.944c1.168.337 2.816-.92 4.296-1.608-1.151-1.586-.433-2.69-1.258-4.192-.9.644-1.379-.107-2.068-.144 1.581 1.698-2.947 1.828-2.661 3.19.566.918 1.127 1.836 1.691 2.754M776 72.538c-.207-.852.165-1.505-.584-2.538-1.237.84-2.903 1.538-2.282 2.998 1.245-1.383 1.619.926 2.866-.46M754 115.894c-.449-.98-.976-1.641-1.607-1.894-1.39.963-2.003 2.164-.589 4 1.24-.543 1.858-1.283 2.196-2.106M780 67.48c-.501-.83-.994-1.658-1.496-2.48-1.414 1.16-1.065 2.784-2.504 3.939 1.09.325 2.592-.722 4-1.46M606 156.152c-1.568-2.304-2.898-5.818-5.883-6.152 1.717 1.848-.494 2.57-1.03 3.771-.51-.563-1.183-.534-1.54-1.655-4.54 3.578 2.031 8.722 5.387 10.884-.214-1.01-.864-2.144-.388-2.956 1.261-.725 1.868.933 3.162.087.506-1.216-2.807-4.74.292-3.98M743 72.838c.623 2.274 1.35 2.496 1.537 3.993.928.458 4.332.03 4.463-1.852-.684-1.173-3.04-4.53-6-2.14M736.254 84c-1.89 1.128-1.43 2.925-.03 5 2.655-.87 2.054-4.191.03-5M666.379 160.742a99.476 99.476 0 0 1-.633-1.123c-.378.214-.753.423-1.125.633.21.379.423.754.633 1.129l1.125-.64M662.282 158.552c-.36.16-.714.294-.88-.243.328-.228.622-.462.247-.879-2.853.441 1.323 3.78.633 1.122M603.323 147c.535-.256 1.072-.514 1.61-.77.503-1.783-1.896-6.932-4.77-6.15-.63 1.78.595 5.62 3.16 6.92M623.69 136.072c-.28.17-.49.433-.536.928 2.705-.205 3.34-.123 4.846-2.02.01-1.07-1.653-.344-2.33-.681.025 1.048-.532 1.279-1.13 1.451.106-1.056-.465-2.136-1.486-1.615-.174.799.08 1.686.635 1.937M663.62 155.543c.452.65.92 1.242 1.76.492-.462-.615-.807-1.65-1.514-1.374.159.366.293.717-.246.882M580 159.625c-.865-1.364-1.71-2.827-2.96-2.602-.33 1.798 1.46 3.83 2.96 2.602M650.573 157.174c.738-.375 1.188.28 2.004-.39.093-1.88-2.844-.579-2.004.39M577.021 154.029c.846.942 1.572 2.307 2.958 1.299-.459-.762-.429-1.386-.387-2.01-.861.255-1.527-.192-2.571.71M733.134 140.584c.777 2.418 3.918.648 2.25-1.272-1.647-.303-.69.456-2.25 1.272M743.698 61.312c-.423-.753-.851-1.506-1.271-2.256l-1.125.633c.425.752.846 1.502 1.269 2.255.377-.213.75-.425 1.127-.633M596.028 138.766c-.27 1.45 1.463 3.213 2.972 1.542-.657-2.055-1.53-3.108-2.972-1.542M654.696 152.047c.018-2.058-2.883-1.7-2.32-.174.916-.447 1.249 1.188 2.32.174M676.822 94.869c-.322-.567-.634-1.125-.952-1.689-.563.315-1.128.633-1.692.954.318.561.636 1.125.952 1.686.563-.318 1.13-.633 1.692-.951M662.235 144.097c-1.245-3.603-2.568 1.14 0 0M658.822 145.116c-.318-.56-.636-1.125-.955-1.689-.563.315-1.127.636-1.688.954.59 1.287 1.473 1.53 2.643.735M620 124.397c-.48-.799-.958-1.598-1.436-2.397-1.727.626-2.023 1.626-.891 3 .782-.214 1.385.163 2.327-.603M644.618 103.54c.453.652.921 1.243 1.764.496-.465-.615-.807-1.656-1.518-1.371.162.357.291.71-.246.876M673 129.983c-2.326-5.65-5.706-7.616-10.531-4.523-1.878 1.829-.812 4.455-1.469 6.612 3.482 4.1 11.354 4.32 12-2.089M567.072 141.199c.642-2.86-3.042-.531 0 0"/><path d="M562.07 141.979c6.226.492 4.307-7.767-.57-5.623-.233 1.337-2.299 2.2-1.16 3.902.445 1.01 1.262.786 1.73 1.72M590.588 124c.469-.291.943-.585 1.412-.88-.532-1.04-1.064-2.08-1.593-3.12-2.471.605-1.214 3.517.18 4M615.452 104.09c-.318-.56-.636-1.125-.954-1.689-2.106.1-.22 3.444.954 1.69M605.324 102.73c-.255-.86.195-1.524-.708-2.568-2.08-.018-.186 3.31.708 2.568M653 124.018c-.44-.762-.412-1.39-.372-2.004-2.16.687-2.007 1.074-4.628 1.974 1.941 2.493 2.549-.54 5 .03M633 75.84c-1.555-2.991-7.254-2.133-8 1.119 2.053 1.16 6.073 1.984 8-1.12M641.689 64.143c5.735 3.976 5.987-7.416-.689-3.185.3 1.08-.434 1.901.689 3.185M530.979 125.326c-.462-.759-.429-1.383-.39-2.007-.99.73-1.596.07-2.568.708.843.942 1.569 2.307 2.958 1.3M627.375 145.875c.915-.45 1.251 1.185 2.322.171.015-2.055-2.883-1.7-2.322-.17M504.68 143c.438-.299.879-.592 1.32-.893-.117-2.04-1.192-2.752-3-1.45.436 1.32 1.02 1.982 1.68 2.343M825.495 66c1.974-.507-.408-2.114 2.184-2.466-.321-.507-.636-1.022-.957-1.534-2.274.858-1.053 2.605-1.227 4M784.886 87.81c.518-2.404-.775-3.09-3.057-3.81-2.51 1.276-1.965 3.315-2.829 5 1.52-2.253 3.931-1.408 5.886-1.19M806.329 68.937c-.279-.635.543-1 1.368-1.366-.564-1.237-1.323-1.837-2.394-1.458.291.706-.084 3.322 1.026 2.824M794.96 74.482c-1.227-3.441-4.257 1.425-2.253 1.266-.68-1.527 1.401.228 2.253-1.266M694.552 116.979c.722.09 1.508-.091 2.448-.884-.063-2.082-1.339-1.942-2.807-2.095.284 1.046-.809 1.663.36 2.979M570.963 181.363c-1.146.486-1.817-.903-2.963-.417.352 1.665 3.365 1.428 2.963.417M752.26 77c.908-.405 1.516-.888 1.74-1.466-1.261-1.005-5.375-2.621-4.972-.475 1.44-.508 2.509.17 3.233 1.941M656.324 162.396c.21.378.423.753.633 1.128.843-.77 1.914.021 1.689-.954-.93.516-1.194-1.386-2.076-1.056.159.363.294.714-.246.882M654.885 163.526c-1.094.381-1.51-1.935-2.885-.423.19.378.378.753.57 1.125.397.426 3.002.093 2.315-.702M724.31 138.34c1.4.22 3.24.567 1.935-1.836-1.005 1.512-1.926.708-1.935 1.836M741.806 100.9c.644 1.093 1.293 2.184 1.94 3.276 1.42 1.75 3.243 2.127 4.973 2.824a88.127 88.127 0 0 0 7.181-1.102c2.472-1.102 3.564-2.568 3.645-4.303 1.733-1.296.812-3.291 1.673-4.819-.087-.524-1.274-1.342-.565-1.657 1.081.506 2.543-.483 2.325-1.64-1.553-.278-2.159-.673-3.167.915-.28-2.953-4.66-5.054-7.097-6.394-1.912.537-3.873 1.22-5.712 1.494a703.1 703.1 0 0 1-2.51 1.34c-2.23 1.915-3.384 4.117-4.492 6.33 1.608.069.858 2.851 1.806 3.737Zm12.196 2.484c.168.3-.248.439-.449.635-.163-.295.245-.436.449-.635ZM588.778 66.671c.935-1.101-1.355-2.424-1.826-2.484-.812.528-.411 1.182-.952 1.737.792 1.956 1.895-.045 2.778.747M606.276 51.414c-.678-.546-1.504.624-2.276 1.155.826.522 1.687.642 2.513 1.158 1.527-1.584-1.103-1.308-.237-2.313M609.242 90.618c1.265 1.103 2.616 1.246 4.054.49.195.652.877 1.147 1.704.75-.238-.798.187-1.418-.662-2.39-.465.14-.745.385-.915.659.043-.419.246-.824.739-1.2-1.257-2.033-2.673-2.355-4.06-2.927-2.066 1.38-.53 3.083-.86 4.618M599 113.196l-1.58-1.986c-.472.411-.945.828-1.42 1.24 1.048-.292 1.826 2.525 3 .746M754.617 2.037c-.072-.621-.155-1.236-.74-1.902-.501.414-.996.828-1.494 1.242.413.495.824.993 1.241 1.488.33-.276.66-.552.993-.828M688 68.23c-.92-1.073-1.844-2.153-2.77-3.23-.755 2.21.467 4.592 1.981 7 2.237-1.964-1.21-1.783.789-3.77M752.865 11.626c-.411-.498-.825-.996-1.239-1.491-.498.414-.99.825-1.491 1.239l1.242 1.491c.495-.414.993-.825 1.488-1.239M687.784 64.26c-2.211-1.478 1.059 2.443 0 0M576.847 182.945c-2.736 1.57 5.016 1.224.414.495-.063-.006-.375-.516-.414-.495M748 33.897c-1.404-1.375-.42-2.535-.907-3.828-2.153-.569-2.2 2.543-4.093 3.379.92 1.192 1.55 2.36 1.363 3.452 2 .68 1.722-2.303 3.637-3.003M732.522 45.92l-1.245-1.491c-2.052.48.402 3.426 1.245 1.49M649.92 133c.424-2.333-.868-4.31-2.92-5 .014 2.425 1.37 3.05 2.92 5M684.966 98.46c.255.5.582.309.909.084.33-.276.663-.552.99-.828-.411-.495-.828-.993-1.239-1.491l-1.491 1.242c.675.189 1.341.387.831.993M712.058 89c-1.575 1.17-.231 2.594.996 4 1.518-1.176-.216-2.628-.996-4M674.41 125.7c.549-.717-.621-1.587-1.158-2.4-2.1.999.5 2.325 1.158 2.4M646 154.17c-.827-1.537-1.896-.63-2.725-2.17L641 153.754c.495.053 2.865 1.174 1.896 2.101 1.11.511 3.019-.399 3.104-1.685M648.055 151.129c.518.453 1.12.537 1.945-.312-.445-2.628-1.98-.597-2.95-.984.093.138.18.279.274.414-1.214-.423 1.427 2.33.731.882M739.219 90c.765-1.264 1.152-2.562-.081-4-1.368.768-.324 1.748-2.07 2.481.753.113 1.467.652 2.151 1.519M699.226 122c-2.25 1.127.15 2.608 1.404 4 .012-1.295.52-2.552-1.404-4M709.153 132.71c-2.358 3.087 3.753.846 0 0M793.904 68.828c-.411-.495-.822-.99-1.236-1.485-.942.678-.54 1.479-1.572 2.15.882.394 1.833.04 2.808-.665M694.253 157.883c2.118-1.011-.876-2.865-1.517-2.883-2.07.478.81 3.642 1.517 2.883M675.845 171.004c-.891-.07-1.863.776-2.845 1.715.995 1.792 2.128 2.038 3.263 2.281 1.363-1.192.605-2.579-.418-3.996M744 118.806c1.33 2.873 4.466-.128 2.202-1.806-.734.601-1.47 1.202-2.202 1.806M674.79 176.013a4.204 4.204 0 0 0-.195.115c.005.01.01.014.013.024l-.608.463c.881 1.6 1.982 1.006 2.888 2.385l2.112-1.613c-.94-1.025-1.854-2.336-2.888-2.387l-1.323 1.013M720.897 145l2.103-1.741c-.348-.416-.699-.833-1.052-1.252-1.49-.138-2.936 1.694-1.051 2.993M677.696 181.312c-1.272 1.52.453 1.729 1.569 2.688.369-.965.957-1.913-.162-3-.513.524-.978.586-1.407.312M718.866 151.842c2.235-1.206-.07-3.972-1.66-1.986.556.66 1.108 1.323 1.66 1.986M686.783 183.262c-2.208-1.482 1.062 2.44 0 0M750.591 137.419c.279.33.552.66.825.99.336-.276.666-.549.993-.828-.273-.327-.546-.657-.825-.99l-.993.828M760.046 150c2.335-2.138 4.377-4.302 4.377-6.65.374-.048.665-.308.553-.883-.278.154-.484.056-.682-.077a4.747 4.747 0 0 0-.569-1.39c-3.75 1.279-9.07 3.698-9.725 8.048 1.88 1.761 4.24-1.7 6.046.952M832.224 84.948c-3.04-.582-.414 2.904 0 0M794.066 118.397c.852 1.183 1.91.342 2.928-.136.082-.623-.762-1.326-.226-1.91-1.328-1.202-3.137.985-2.702 2.046M786.124 127c1.929-.776-.047-1.863.734-2.733-.799-.993-1.92 1.081-2.858 1.365.746.107 1.453.589 2.124 1.368M778.59 137.417l.83.994c.33-.276.663-.553.99-.828l-.827-.994c-.33.274-.66.553-.993.828M778.578 141.08c-1.488-.563-3.279 1.982-1.242 2.92 3.024-.78-.969-2.08 1.242-2.92M776.451 145.128c-.561-.516-1.254.339-1.902.747.567.51 1.257-.336 1.902-.747M775.246 148c-1.842.887-2.376 1.875-2.151 2.918 1.347.567 4.176-1.958 2.15-2.918M862.824 86.19c-.63-.666-1.253-1.338-.743-1.902-.567-.516-1.255.336-1.905.744.8 1.479.761 2.631 2.648 1.158M776.728 163 774 165.24c1.011 1.183 1.989 2.695 3.104 2.76 1.25-.714.297-1.631 1.896-2.316-.687-1.829-.819-1.047-2.272-2.684M870.26 90.441c-.062-.009-.374-.519-.416-.495-2.73 1.566 5.019 1.221.417.495M907.899 60.726c-1.099-1.156.018-2.117 1.101-3.08-2.221-2.49-7.336 3.005-8.453 3.223-2.24 3.512-7.963 6.715-11.547 10.105 5.112.572 11.123-8.505 16.25-8.097.963-1.436 1.027-1.488 2.649-2.15M842 129.635 840.374 128c-1.718.878-1.824 1.88-.325 3 .647-.455 1.302-.91 1.951-1.365M877 119.065c-.85-1.048-.316-1.963-1.718-3.065-4.14 2.296-10.295 7.82-13.282 11.58 5.254 2.069 9.907-3.94 15-8.515M822.185 180.113c-.729.69-1.46 1.38-2.185 2.07.768 1.812 4.665-.24 2.185-2.07M904.956 121.429c.834-.712 1.667-1.427 2.5-2.141 1.03-1.528 1.713.921 2.705-.145 1.017-.96 1.11-2.01.277-3.143a4702.469 4702.469 0 0 1-5.414 4.642c-1.276.494-1.427 2.252-.068.787M860.235 173.307c.34 2.326 2.59 4.129 5.35 4.129 2.99 0 5.415-2.113 5.415-4.718 0-2.606-2.424-4.718-5.415-4.718-2.386 0-4.387 1.352-5.111 3.216-2.167-.005-4.56 2.475-6.874 4.091-.713.086-1.42.094-2.136.222.705-.774 1.144-1.74 1.144-2.803 0-2.512-2.335-4.542-5.214-4.542-2.885 0-5.215 2.03-5.215 4.542 0 1.483.827 2.784 2.088 3.613a3.546 3.546 0 0 0-.13-.045c-1.996.507-3.416 1.859-.39 2.128-.272.062-.559.302-.838.422.377.416.84-.11 1.271-.296-.065-.072-.135-.086-.203-.11.274.019.591.027.936.03.927.816 2.006 0 3.08-.803-.336-.101-.673-.219-.998-.435.136.008.263.032.399.032.42 0 .827-.053 1.222-.136-.062.062-.116.107-.173.168 3.52-.765 8.473-1.088 11.792-3.987M899.327 160.953c.084-.037.166-.07.253-.125-.023-.042-.054-.088-.08-.133.07-.233-.028-.483-.14-.736.464.155.962.25 1.493.25 2.292 0 4.147-1.613 4.147-3.607 0-1.986-1.855-3.602-4.147-3.602-2.292 0-4.147 1.616-4.147 3.602 0 .27.038.531.1.782-1.84-.436-3.755.052-4.806 2.555 1.018.859-.008 1.53 1.335 2.417 2.118 1.769 4.647-.581 5.984-1.385.003-.005.003-.01.008-.018M887 178.106c.448 2.22 2.167 1.52 3.713 2.894.984-1.172 2.168-2.324 2.287-3.582-1.919-.694-3.91-.564-6 .688M941 166.292c-.701-.522-1.431-.642-2.132-1.158-.737.525-.372 1.179-.868 1.734 1.351 1.56 2.26 1.236 3-.576M980 102.773c-1.15-2.052-2.677.84-3.955.498-.459 2.949 2.723 1.578 3.955-.498M982.536 30.867c-.435-.474-.876-.948-1.31-1.425-2.035.573.566 3.4 1.31 1.425M1008.335 37.923c1.584 2.464 3.39-.249 5.02.999 3.376-2.622 5.857-3.726 8.205-4.063 1.138-3.571 10.747-5.348 9.29-9.605-3.317-1.433-6.922 3.74-10.223 1.989-4.265 4.113-8.31 3.372-12.627 8.675 1.138.71-.263 1.322.335 2.005M1037.33 17.828c-1.112 1.06-2.22 2.114-3.33 3.17 2.67.082 7.599-3.236 9-4.578-1.793-1.918-3.88 3.473-5.67 1.408M975.528 83c2.188-1.769 1.782-2.84-.198-4-1.012.924-2.32 1.838-2.33 2.807.835.57 1.714.198 2.528 1.193M1001 177.2c.967.362 1.857 1.59 3-.169-.516-.66-1.026-1.323-1.542-1.986-1.123.657-.956 1.437-1.458 2.154M1026.616 174.865c.46-.417.92-.828 1.384-1.242-.385-.495-.767-.993-1.155-1.488-.612.552-1.231 1.104-1.845 1.656.553.18 1.105.372 1.616 1.074M986 140.772c.934 1.683 1.966.585 3-.762-.356-.453-.749.168-1.124.396-.376-.32-.188-.618.026-.909-.602-.513-1.258.7-1.902 1.275M1041 144.692c-1.266-2.23-2.763.734-4.024-1.692-6.756 4.552-13.245 2.921-19.976 6.885 7.621 1.028 13.632-5.274 20.591-2.26 1.691-1.621 2.646-1.08 3.409-2.933M1069.871 136.896c-.438-.477-.876-.95-1.311-1.428-.48.438-.954.876-1.431 1.314.921-.02 1.767 1.617 2.742.114M1066.43 169.531c-.507.741.702 1.554 1.275 2.34.897-.573.405-1.206.987-1.785-.288-.321-.582-.639-.873-.957-.48.588-.94.675-1.39.402M1104 168.992c-1.349.5-2.608-1.266-4 .288 1.273 1.308 2.587 1.707 4-.288M771.125 155.177c-1.226.774-1.972 1.59-2.492 2.43-.442-1.658-2.345-2.983-4.288-1.172-.207 1.7 1.495 3.962 3.315 3.372-.661 1.966-1.142 3.949-4.252 5.688.003.008.003.013.006.016-2.05-.334-4.28-.171-6.182.302.24.628-.478.986-1.195 1.346a6.72 6.72 0 0 0-.125 2.068c-1.143.65-1.912 1.793-1.912 3.105 0 2.025 1.817 3.668 4.056 3.668.92 0 1.762-.291 2.442-.761.013.069.013.138.029.205.128-.136.225-.288.337-.433 4.435 1.665 9.976.297 8.433-4.913-.515-1.734-1.618-2.883-2.994-3.636 1.198-4.89 4.555-9.578 6.697-14.38-1.049-.59-2.984 2.138-1.875 3.095"/><path d="M784.676 151.18c-.755.249-1.644 1.846-2.34 1.554.138-.145.28-.267.42-.438-.693-1.098-1.395-2.197-2.094-3.296-.836 1.109-5.313-.013-6.61 2.424-.304.992.804 2.32 1.592 3.576 2.391-.633 4.547-.292 6.443-2.014.198.07.52.096.723.368.35.42-.257.758-.523 1.122 1.311.46 3.551-2.261 2.39-3.296M796.28 153.877a3.984 3.984 0 0 0-2.505-.877c-2.123 0-3.847 1.584-3.847 3.54 0 .774.279 1.483.737 2.065a18.805 18.805 0 0 1-4.665 3.352c1.503.244 1.693-1.253 2.297 1.043 1.462-.62 2.962-1.757 4.483-3.06.318.079.649.136.995.136 2.123 0 3.842-1.582 3.842-3.537 0-.284-.044-.558-.115-.82a39 39 0 0 1 1.498-1.235c-.763-1.852-1.73-1.362-2.72-.607M760.525 113c.324-1.445 1.99-3.118 3.112-4.705.279.347.743.563 1.304.584.183-.703-.068-1.468-.616-1.721.59-1.213.548-2.324-1.102-3.158-.832.726-1.66 1.453-2.492 2.176 1.653.995-2.04 4.513-.206 6.824M780 124.718c3.283 1.517 2.686-3.526 5.513-4.604.989-.617.325 1.674 1.909.565 2.296-1.361 1.77-2.982.42-4.679-4.029 1.3-4.477 6.075-7.842 8.718M926.447 70.991c4.047.201 9.33-2.974 12.594-7.685-.387-.297-.814-.071-1.187-.529 2.151-1.77 1.12-3.831 2.146-5.702-2.025-1.602-1.257-5.57-3.78-8.363-3.04-3.37-8.146-5.047-12.518-2.428-.58.372-1.048-.51-1.558-.99-3.21 1.91-4.378 3.355-7.107 6.086.663 2.448.714 4.843-1.037 7.067.68 6.329 7.744 11.403 12.447 12.544Zm5.925-11.257c.95 2.244-1.98-1.359 0 0ZM870.904 149.655c1.368-1.103 2.73-2.206 4.096-3.308-1.052-2.248-2.436-.94-3.568-2.347-6.551 4.012-12.811 4.93-19.432 9.701 6.02 1.668 12.743-4.193 18.904-4.046M602.063 118.584c1.353.598 2.099 2.067 4.555 1.088.66-2.685.971-6.756-3.47-5.404.256 1.941-1.496 2.252-1.085 4.316M619.23 90.049c-.063-.426-.123-.855-.183-1.281-.426.06-.855.12-1.278.183.063.426.124.852.183 1.281.427-.063.85-.12 1.279-.183M615.73 97.814c-.66-1.095-.634.483-.46 1.371.663 1.095.633-.48.46-1.37M447.553 150c1.727-.138.886-2.191 3.447-1.708-.784-1.349-3.846-1.832-5-.517.243 1.104.685 1.944 1.553 2.225M429.742 154.329a3.26 3.26 0 0 0-.23 1.168c0 1.934 1.676 3.503 3.741 3.503 2.073 0 3.747-1.57 3.747-3.503 0-1.93-1.674-3.497-3.747-3.497-1.338 0-2.507.663-3.169 1.655-.064-.205-.226-.445-.556-.724-1.044 1.163-.305 1.566.214 1.398M621.903 119c-2.35.166-1.543 1.868-2.806 3.993 1.524.174 1.786-2.875 2.806-3.993M595.231 168.858c2.444 1.049 3.222-4.039 2.523-4.858-1.923.436-3.327 3.136-2.523 4.858M556.598 124.235c-.108-.62-.855-.39-1.371-.459-.072-.624.711-.609 1.188-.822-.213-.738-1.242-.372-2.013-.369l.276 1.923a369.54 369.54 0 0 1 1.92-.273M473.683 169.45l-1.281.18c.09.639.183 1.278.273 1.92.642-.093 1.284-.183 1.923-.273-.063-.429-.123-.855-.183-1.281-.528.198-.639-.162-.732-.546M447 181.213c-.567-2.208-3.021-1.671-5-1.83.627 2.13 2.302 2.73 5 1.83M585.012 158c3.53-3.39 1.418-9.775 5.988-14.596-1.387-1.757-.551-3.706-2.616-5.404-1.788.197-2.005 2.53-3.061 3.882 2.558 5.142-.535 10.772-.311 16.118M1263.453 166.147c.648-.042.747-1.177-.072-1.293.105.722-.882 1.058.072 1.292M1217.186 150.553c1.485 1.119 3.067 2.137 5.318 2.447 1.715-1.67 3.415-3.616 1.923-6.623-2.024-.161-3.776-.615-6.337-.22.901 2.486-1.803 1.914-.904 4.396M1215.181 170.112c-.024-.429-.048-.861-.069-1.293l-1.293.072c.027.429.048.861.072 1.29.429-.021.861-.045 1.29-.069M1204.902 128.8c.916-3.998-4.9-3.52-3.751.2 1.251-.069 2.502-.134 3.75-.2M1204 171.792c.47 1.206 2.244 1.593 3 .432l-.083-1.935c-1.61.11-2.726-1.167-2.917 1.503M1196.19 181.084c.99 2.387-.473 3.426 2.176 3.916-.57-1.726.534-2.118.438-3.468-.882-.139-1.281-.754-2.613-.448M1197.436 165.767c-.642.033-1.287.07-1.935.105-.84 1.932 2.988 1.725 1.935-.105M1184.494 129.492c-1.7-.297-2.307.381-1.833 2.037 1.755.351 1.176-1.4 1.833-2.037M1184.825 174.428c1.578-.156.024-2.145-.75-1.902.01.825-.774.94-.537 1.968.426-.02.861-.042 1.287-.066M1182.585 185.854c-.915 1.638 2.295 1.779 1.971.54-.396-.015-.768-.057-.68-.612l-1.29.072"/><path d="M1183 184.902c-.841.075-1.357-.228-1.874-.54.254 1.257-.761 1.326-1.126 2.004 1.477.297 2.906.825 3-1.464M1180.216 194.968c1.014.96 2.92.56 2.511-1.434-1.194.156-2.136.543-2.51 1.434M1178.44 142.767c-.645.033-1.293.07-1.94.102-.844 1.935 2.987 1.728 1.94-.102M1177.534 191.197c1.011-.117 2.238-.032 1.863-1.394-.429.024-.858.044-1.29.069.036.647-.483.794-.573 1.325M1174.285 157.253c-.04-.852 1.095-.651 1.22-1.36-1.364-.671-3.023 1.177-1.22 1.36M1177.197 188.466c-.113-1.008-.035-2.238-1.394-1.863.023 1.11.584 1.629 1.394 1.863M1175.398 180.803l-1.296.072c.045.644-.47.792-.57 1.322 1.011-.117 2.244-.036 1.866-1.394M1174.796 184.583c-.864.045-1.725.09-2.586.141-.303 2.568 2.835 1.962 2.586-.14M1172.52 176.401c-.021-.431-.045-.86-.066-1.29-.399-.017-.771-.056-.678-.614l-1.296.071c.039.645.069 1.29.108 1.935.645-.032 1.29-.071 1.932-.101M1173.197 191.399c-.026-.432-.044-.861-.071-1.29-.649.036-.798-.477-1.323-.576.11 1.008.032 2.24 1.394 1.866M1168 148c-.999-3.84-5.039-4.325-8-6 1.399 3.401 3.963 5.515 8 6M1166.408 187.572c0 1.394.061 2.724.762 3.357 1.642.377 1.44-.874 2.83-.72-.043-.75-.083-1.503-.125-2.256-2.37-1.38-3.129-1.864-5.853-1.953-.284 2.635 2.232.67 2.386 1.572M1165.402 150.801c-.435.024-.86.045-1.293.066.033.651-.483.801-.579 1.332 1.011-.117 2.244-.036 1.872-1.398M1166.44 178.767c-.648.033-1.296.07-1.941.102-.843 1.935 2.99 1.728 1.94-.102"/><path d="m1166.109 187.819-1.29.072c.024.429.042.861.069 1.29.429-.021.861-.048 1.293-.069-.024-.429-.051-.861-.072-1.293M1165.282 193.598c.003-1.023 1.62-.597 1.188-2.007-1.842-.924-2.811 1.833-1.188 2.007M1164.123 183.685c.246.03-1.965 1.302-1.86 1.395 1.035.93 3.666-1.194 1.86-1.395M1162.45 181.107c-.397-.015-.772-.054-.678-.609-.432.024-.861.045-1.29.069.03.648.069 1.29.101 1.935.649-.036 1.293-.069 1.935-.105-.024-.429-.042-.861-.069-1.29M1158.616 190c.091-.885.978-1.185 2.384-1.108-.037-.502-.071-.997-.102-1.5-1.066.084-1.91-.027-2.48-.392.948 1.399-1.498 2.617.198 3M1152.507 189.294c2.127-2.727-2.157-1.407 0 0M1150.544 172.469c-.033-.645-.072-1.29-.102-1.938-.648.039-1.293.069-1.94.105-.349 1.761 1.4 1.176 2.042 1.833M1149.417 188.795c-.036-1.767-1.143-1.242-.135-2.583-2.571-.309-1.974 2.832.135 2.583M1147.181 177.107c-.027-.428-.051-.857-.075-1.286-.426.02-.858.044-1.287.069.021.429.045.86.069 1.29l1.293-.073M1143.182 172.112c-.024-.432-.044-.861-.072-1.293-.428.024-.857.045-1.292.069.026.432.048.864.072 1.293l1.292-.069M1139.23 168.432c-.04-.855 1.104-.654 1.224-1.362-.834-1.53-3.006.882-1.224 1.362M1139 191.372c.858-.402 3.165.57 2.99-.822-1.012-1.026-2.872-1.704-2.99.822M1139 182.259c-.036-1.546-1.05-1.089-.129-2.259-1.61.402-3.268.768-2.786 2.979 1.375.108 2.257-.21 2.915-.72M1138 186.572c-.042-.782-.082-1.563-.122-2.342-1.778-.313-1.116-.348-2.85.158-.267 2.823 1.384 3.009 2.972 2.184M1134.747 134.685c-.03-.645-.069-1.287-.105-1.935-.885.078-1.434-.228-1.97-.54-1.003 1.341.104.819.137 2.58.648-.033 1.296-.069 1.938-.105"/><path d="M1132 186c1.527.008 2.98-.047 3-1.409-1.613.286.387-3.51-1.969-2.38-1.367.334.154 3.292-1.031 3.788M1132.731 167.884c-3.234 1.737 2.307 1.545 0 0M1131.094 177.99c1.326.12 1.791 1.203 2.688 1.797.735-2.037-2.028-3.564-2.688-1.797M1131.178 196.477c-.057-.393-.138-.76-.681-.61-.864 2.755 3.978.49 1.29-.071-.015.396-.054.77-.61.68M1130.826 183.475c-1.029-.222-.666-1.998-2.652-1.15.048.859.093 1.72.141 2.578 1.194-.15 2.133-.54 2.511-1.428M1122 153.544c.565.099.807.663 1.05 1.224.947-.342 2.144-.387 1.923-2.076-1.122-.204-2.775-1.3-2.973.852M1123 146.988c-.03-.516-.058-1.035-.089-1.551-.546.028-1.093.055-1.637.084-.122-.603.008-1.47-.635-1.521-.099.81-1.182.418-1.639.084.216 2.143 1.626 3.03 4 2.904M1122.469 172.593c-1.836-.924-2.808 1.83-1.188 2.004 0-1.02 1.62-.594 1.188-2.004M1119.79 162.35c.37-2.222-2.597-2.381-2.612-.5.882.156 1.278.852 2.613.5M1116.337 167.728c-1.84 2.28 2.493 1.827 0 0M1162.66 191c1.729 2.424-1.037 2.948-1.655 4.95 3.102.609 4.023-4.502 1.656-4.95M1232.184 160.034c1.32 1.444 2.912 2.575 4.28 3.966 8.706-2.043 18.059 1.249 24.8-4.387.826-3.005 1.082-5.664.11-9.025-6.101-2.163-14.693-13.331-23.72-8.298-1.543 2.372-.388 7.247-3.65 8.022.7 4.454-2.834 4.98-1.82 9.722M947.95 178c-1.637.641-3.27 1.285-4.92 1.931-.634 8.735 9.11 4.913 4.92-1.931M1096 189.15c2.374.448 6.979-.314 8-1.22-3.363-.837-5.1 1.062-8 1.22M1116.554 187.134h-1.407c-.366.195-.735.396-.699.732h2.106v-.732M1019.626 185.887c-.495.753-.495.471 0 1.227 2.826.231 2.826-1.464 0-1.227M1010.26 182.887c-.234.566.111.941.693 1.226 1.392-.197 2.526-.86 1.407-1.226h-2.1M993.735 180.48c1.458-.162 3.036-1.536 1.404-1.96-2.133.075-2.421 1.528-1.404 1.96M1120.8 188.379c.014.24.864.192 1.4.243-.018-.235-.858-.184-1.4-.244M1129 186.996c-2.92-.663-6.873.357-8 1.22 2.09-.632 6.27-.44 8-1.22M1076.52 176.011c-1.437.141-2.922.471-1.4.978.941-.165 1.307-.522 1.4-.978M1098.778 175.64c-1.41.523-3.185.889-3.778 1.72 1.983-.24 4.818-1.072 3.778-1.72M1160 184.88c-.364-.221-.708-.44 0-.491-1.31-.354-2.633-.252-3.805.02.256-.323.793-.35.872-.875-.902-.531-1.932.516-1.578 1.062-.347.108-.674.219-.98.336.58-.315.93-.957-.13-1.221-.015.39-.042.768-.504.675-.045-.393-.117-.756-.568-.61-.31 1.186.264 1.438.835 1.303-.449.189-.84.378-1.142.534 2.676-.102 4.494-.558 7-.732M963.022 175.72c1.883-1.21.792-1.605-1.125-2.445-2.03.654-3.401 2.57 1.125 2.445M1035.805 174.113c2.31.063 3.156-1.347 0-1.22-.897.32-.897.9 0 1.22M1093.854 162.398c-2.314.147-2.241 1.32-2.854 2.204 1.516-.492 3.567-.756 2.854-2.204M955.092 152.212c-.125.564.087 1.1.435 1.61-.189-.024-.372-.05-.568-.05-2.188 0-3.959 1.618-3.959 3.612 0 1.997 1.771 3.616 3.959 3.616 2.187 0 3.959-1.619 3.959-3.616 0-.043-.013-.086-.013-.132.342.014.743.008 1.08.027.283-2.625-3.56-4.824-4.28-7.269-3.624-.17-1.251 1.856-.613 2.202M1061.775 166.089c4.243-.378 6.802-.057 8.225-1.713-3.182.057-5.351.54-6.465 1.467-1.845-.12-2.295.345-3.522.492-.233.47 2.677.35 1.762-.246M895.358 185.887h-2.097c-.23.564.108.939.693 1.226 1.39-.2 2.523-.863 1.404-1.226M878.387 181c-1.294.045-1.81.646-1.735 1.15-.22.126-.436.256-.652.383.297.49.593.982.882 1.467.497-.289.989-.583 1.486-.871-.131-.215-.26-.426-.388-.64.933-.409 1.534-1.2.407-1.489M958.121 179.989c.94-.165 1.302-.525 1.398-.978-1.437.141-2.919.471-1.398.978M875.08 170c-3.586.013-3.012 2.525-3.178 2.967-1.579.478-1.801 1.896-1.902 3.399.59.158.956.387 1.266.634h1.905c1.097-.621.771-1.721 2.54-2.12-.405-1.601 3.513-3.998-.63-4.88M838.357 154.63c-.451 1.946 3.181 3.602 3.063 4.714.097.258 1.117.184 1.84.22.084-.796-.249-1.548-.744-2.284.102.066.202.145.298.18.336-.1.616-.224.889-.353-.005.068-.026.134-.026.202 0 2.04 1.866 3.691 4.161 3.691 2.296 0 4.162-1.65 4.162-3.69 0-2.046-1.866-3.697-4.162-3.697-.83 0-1.598.221-2.25.594-.245-2.502-3.688-4.842-5.544-1.68-.12.64.236 1.699.77 2.68-.801-.897-1.564-1.79-1.847-2.721-3.63-.166-1.247 1.808-.61 2.145M943.778 168.086c4.246-.378 6.797-.054 8.222-1.71-3.181.054-5.353.537-6.46 1.467-1.848-.12-2.295.345-3.527.49-.233.473 2.68.353 1.765-.247M73.388 186.054c2.16.32 4.305.613 6.467.946.579-1.534 2.1-.59 2.828-1.729-1.076-.553-.175-1.413.317-2.209-.733-.53-1.754-1.18-1.48-2.361-.822-.38-1.646-.753-2.466-1.134-.256-2.631-3.985-3.372-6.31-3.567-.579 1.168-.707 2.682-.003 3.03-2.047 1.75-.576 2.97-1.741 4.583 1.602.688 1.317 1.67 2.388 2.441M62.065 181.894c-5.225-1.287-8.927-3.273-12.127.318-.366-.174-.264-.415-.52-.6-1.327.973-1.62 2.094-1.298 2.924.377.948.116.644.844 1.458.183.205-.368.748-.242.945 2.025 3.152 8.938 3.517 11.67 4.061 1.614-1.287 4.015-.45 5.843-1.148 1.081-.772-1.457-.98-.64-1.71 1.14-2.29 5.327-.638 5.405-3.117-.298-1.48-6.634-4.174-8.446-5.025-.634.707.831 1.08-.49 1.894M54.153 194.374c1.155.795 1.668.048 2.019.975.225-.3.444-.591.675-.891-1.071-.501-2.322-1.488-2.694-.084M42 190.402c.697 1.513 2.725 1.107 4.042 1.598.1-.517 1.55-1.265.683-1.625-1.212.655.71-1.259-.507-1.434-1.527.526-.964-.26-1.914-.941-.623 1.213-1.73 1.066-2.304 2.402M39.666 195.967c.558-.123.956-.825 1.334-1.575-1.131-.939-.829-.75-2.149-1.359-.282.492-.564.984-.851 1.473 1.06.384.605 1.083 1.666 1.461M53.841 168.345c.423-.498.61-.963.498-1.374-.987-.882-1.218.315-1.71.792.405.198.807.384 1.212.582M34.865 192.805c.38-.591.757-1.182 1.135-1.773-1.593-.933-2.97-1.173-4-.267.75 1.146 1.347 1.55 2.865 2.04M48.785 168.217c.23.135.444.276.18.492.512.2 1.02.369 1.25-.207-.5-.177-1.107-.6-1.43-.285M43.288 176.546c-.405-.195-.807-.387-1.215-.579-1.251.57 1.149 1.722 1.215.579M27.313 193.374c-.175 1.197-1.138-.403-1.313.794.737.453.61 1.077 1.691 1.458.17-1.194 1.134.4 1.309-.792-.733-.45-.618-1.077-1.687-1.46M19.45 188.894c-.428-.918-.96-.165-1.391-1.077a16.39 16.39 0 0 1-.456.591c-.411.75 1.659 1.041 1.848.486M10.172 192c.611-.847 3.175-.763 2.789-1.513-1.334.396-2.258-1.115-3.361-1.487-.5 1.071-2.127-.702-2.536.6-.55 1.278 2.597 1.808 3.108 2.4M1387 195.146c.406.75.833 1.45 1.423 1.572.958-.582 1.997-1.155 1.403-2.046-.633-.897-1.78-.036-2.826.474M1387 187.402c-.577-1.336-1.678-1.19-2.3-2.402-.953.68-.39 1.467-1.917.94-1.217.176.705 2.093-.506 1.435-.87.36.582 1.108.68 1.625 1.316-.494 3.346-.085 4.043-1.598M1389.332 192.967c1.063-.381.605-1.08 1.668-1.461-.285-.489-.569-.984-.851-1.473-1.32.606-1.018.417-2.149 1.356.378.753.776 1.455 1.332 1.578M1373.662 163.972c-.11.41.075.879.498 1.37.405-.191.804-.383 1.21-.575-.49-.48-.72-1.674-1.708-.795M1397 187.767c-1.028-.906-2.408-.67-4 .264.378.594.756 1.185 1.139 1.773 1.516-.486 2.11-.891 2.861-2.037M1379.217 165.22c-.324-.319-.93.101-1.434.281.231.576.738.408 1.251.207-.264-.213-.048-.354.183-.489M1386.925 172.966c-.408.192-.807.384-1.212.582.069 1.14 2.466-.009 1.212-.582M1400.309 192.628c1.078-.384.954-1.008 1.691-1.461-.177-1.197-1.138.402-1.313-.795-1.07.381-.957 1.011-1.687 1.461.175 1.191 1.138-.399 1.309.795M1392 172.262c-.915-1.557-1.925-.77-3 .18.242.393.478.783.725 1.18 1.396-.613 1.08-.424 2.275-1.36M1410.395 186.405c-.156-.19-.306-.39-.453-.588-.432.912-.963.162-1.392 1.077.19.558 2.26.264 1.845-.49M1416.828 188c.514-.59 3.658-1.122 3.108-2.4-.409-1.299-2.036.471-2.536-.6-1.103.372-2.027 1.883-3.36 1.487-.387.75 2.174.666 2.788 1.513M1430.925 191.81c.844 1.275.483 1.222 1.586 2.19.826-.42 1.652-.837 2.489-1.257-.501-.824-1.043-1.52-2.061-.832-.177-.35.485-.56.865-.815-.915-1.859-2.845-.802-4.431-.752-1.15.09-.327 1.647-1.22.994-.387.256.061.65.235 1.004.444-1.296 1.241.734 2.537-.531M1436.17 184.233c.4-.195.808-.383 1.21-.582-.222-.294-.45-.588-.67-.885-.227.355-.455.703-.812.388-.384.108-.291.297-.18.492.147.195.3.39.453.588M1391.977 163.026c-.49.207-.97.414-1.128.117-.645.111-.423.519-.468.831.75-.078 1.497-.159 2.24-.234-.323-.177-.632-.354-.644-.714M883.426 143c.028 0 .05-.005.077-.008.024.003.046.008.074.008 1.894 0 3.423-1.347 3.423-3 0-1.658-1.529-3-3.423-3-.028 0-.05.008-.074.008-.028 0-.05-.008-.077-.008-1.895 0-3.426 1.342-3.426 3 0 1.653 1.531 3 3.426 3M862 140c0 1.653 1.565 3 3.501 3 1.934 0 3.499-1.347 3.499-3 0-1.658-1.565-3-3.499-3-1.936 0-3.501 1.342-3.501 3M847.501 143c1.929 0 3.499-1.347 3.499-3 0-1.658-1.57-3-3.499-3-1.933 0-3.501 1.342-3.501 3 0 1.653 1.568 3 3.501 3M827 140c0 1.653 1.562 3 3.501 3 1.929 0 3.499-1.347 3.499-3 0-1.658-1.57-3-3.499-3-1.939 0-3.501 1.342-3.501 3M883.425 161c.027 0 .048-.005.075-.005.024 0 .045.005.072.005 2.444 0 4.428-1.79 4.428-4s-1.984-4-4.428-4c-.027 0-.048.005-.072.005-.027 0-.048-.005-.075-.005-2.444 0-4.425 1.79-4.425 4s1.981 4 4.425 4M865.001 161a4.002 4.002 0 0 0 3.999-4.003 4 4 0 1 0-3.999 4.003M829 153c-2.215 0-4 1.565-4 3.497 0 1.93 1.785 3.503 4 3.503 2.202 0 4-1.573 4-3.503 0-1.932-1.798-3.497-4-3.497M811.996 153c-2.204 0-3.996 1.568-3.996 3.499 0 1.933 1.792 3.501 3.996 3.501 2.21 0 4.004-1.568 4.004-3.501 0-1.931-1.795-3.499-4.004-3.499M883.425 177c.027 0 .047-.005.074-.008.023.003.044.008.07.008 3 0 5.431-2.238 5.431-5.003 0-2.764-2.431-4.997-5.43-4.997-.027 0-.048.003-.071.005-.027-.002-.047-.005-.074-.005-3 0-5.425 2.233-5.425 4.997 0 2.765 2.426 5.003 5.425 5.003M829.004 177c2.76 0 4.996-2.01 4.996-4.497 0-2.49-2.237-4.503-4.996-4.503-2.767 0-5.004 2.013-5.004 4.503 0 2.486 2.237 4.497 5.004 4.497M901.504 143c1.934 0 3.496-1.347 3.496-3 0-1.658-1.562-3-3.496-3S898 138.342 898 140c0 1.653 1.57 3 3.504 3M919.5 143c1.935 0 3.5-1.347 3.5-3 0-1.658-1.565-3-3.5-3s-3.5 1.342-3.5 3c0 1.653 1.565 3 3.5 3M937.5 137c-1.932 0-3.5 1.342-3.5 3 0 1.653 1.568 3 3.5 3 1.937 0 3.5-1.347 3.5-3 0-1.658-1.563-3-3.5-3M920.003 160c2.207 0 3.997-1.564 3.997-3.498 0-1.938-1.79-3.502-3.997-3.502-2.21 0-4.003 1.564-4.003 3.502 0 1.934 1.792 3.498 4.003 3.498M936.997 153c-2.206 0-3.997 1.565-3.997 3.497 0 1.93 1.791 3.503 3.997 3.503 2.212 0 4.003-1.573 4.003-3.503 0-1.932-1.791-3.497-4.003-3.497M977 156.501c0-1.934-1.794-3.501-4.003-3.501-2.208 0-3.997 1.567-3.997 3.501 0 1.935 1.789 3.499 3.997 3.499 2.209 0 4.003-1.564 4.003-3.499M901.003 177c2.757 0 4.997-2.015 4.997-4.5s-2.24-4.5-4.997-4.5c-2.766 0-5.003 2.015-5.003 4.5s2.237 4.5 5.003 4.5M925 172.71c0-2.377-2.237-4.296-4.997-4.296-.542 0-1.049.09-1.533.224a13.513 13.513 0 0 1-2.437-.638c-1.186.787-.89 1.64-.242 2.401-.497.666-.791 1.456-.791 2.308 0 2.371 2.235 4.291 5.003 4.291 2.76 0 4.997-1.92 4.997-4.29M942 172.503c0-2.49-2.239-4.503-5.003-4.503-2.758 0-4.997 2.013-4.997 4.503 0 2.486 2.239 4.497 4.997 4.497 2.764 0 5.003-2.01 5.003-4.497M954.503 168c-2.486 0-4.503 1.79-4.503 3.999 0 2.21 2.017 4.001 4.503 4.001 2.485 0 4.497-1.792 4.497-4.001 0-2.21-2.012-3.999-4.497-3.999"/><path d="M973.602 177.657c1.525 0 2.863-.663 3.702-1.673.71 1.244 1.688 2.474 2.912 3.683-1.213.356-2.47.69-2.955 1.298 1.192-.13 2.673-.45 3.461-.812.182.168.336.34.534.508 3.602-.228 6.801 1.135 10.3 1.339 7.465-2.939 8.313-7.56 11.444-11.598-1.728-2.86.098-4.813-2.673-7.937-2.703-7.833-11.222-7.244-17.895-4.979-2.68 2.26-4.754 4.914-5.883 7.752-2.481.15-2.42 1.195-3.09 1.989.92-.248 2-.435 2.675-.764-.33 1.13-.52 2.28-.52 3.444a5.053 5.053 0 0 0-2.012-.423c-2.54 0-4.602 1.828-4.602 4.088 0 2.257 2.061 4.085 4.602 4.085M1008.999 176c2.212 0 4.001-1.568 4.001-3.5s-1.789-3.5-4.001-3.5c-2.207 0-3.999 1.568-3.999 3.5s1.792 3.5 3.999 3.5M367.936 143c.023 0 .038-.01.064-.012.023.002.04.012.066.012 1.622 0 2.934-1.12 2.934-2.502 0-1.38-1.312-2.498-2.934-2.498-.025 0-.043.012-.066.012-.026 0-.04-.012-.064-.012-1.624 0-2.936 1.118-2.936 2.498 0 1.382 1.312 2.502 2.936 2.502M350.5 142.499c-.42.058-.828.15-1.212.283.348 1.775 2.827 1.71 3.354 3.333 8.73-.754 12.197 5.242 20.358 3.598-3.564-3.01-8.563-4.782-15.333-5.03-.926-1.225-3.297-2.155-5.633-2.246 1.248-.363 2.163-1.385 2.163-2.636 0-1.547-1.385-2.801-3.1-2.801-1.709 0-3.097 1.254-3.097 2.801 0 1.358 1.086 2.438 2.5 2.698M335 143c1.656 0 3-1.12 3-2.502 0-1.38-1.344-2.498-3-2.498s-3 1.118-3 2.498c0 1.382 1.344 2.502 3 2.502M317.999 143c1.655 0 3.001-1.12 3.001-2.502 0-1.38-1.346-2.498-3.001-2.498-1.658 0-2.999 1.118-2.999 2.498 0 1.382 1.341 2.502 2.999 2.502M367.934 159c.02 0 .041-.005.065-.005.023 0 .044.005.067.005 2.172 0 3.934-1.568 3.934-3.499 0-1.935-1.762-3.501-3.934-3.501-.023 0-.044.005-.067.005-.024 0-.044-.005-.065-.005-2.172 0-3.934 1.566-3.934 3.501 0 1.93 1.762 3.499 3.934 3.499M350.997 159c2.211 0 4.003-1.568 4.003-3.5 0-1.93-1.792-3.5-4.003-3.5-2.208 0-3.997 1.57-3.997 3.5 0 1.932 1.79 3.5 3.997 3.5M334.999 159c2.21 0 4.001-1.564 4.001-3.5 0-1.938-1.79-3.5-4.001-3.5-2.209 0-3.999 1.562-3.999 3.5 0 1.936 1.79 3.5 3.999 3.5M318.499 159a3.505 3.505 0 0 0 3.501-3.503c0-1.929-1.57-3.497-3.501-3.497a3.5 3.5 0 0 0 0 7M302.499 159a3.504 3.504 0 0 0 3.501-3.503 3.501 3.501 0 0 0-7 0 3.5 3.5 0 0 0 3.499 3.503M286.501 159c1.93 0 3.499-1.342 3.499-3s-1.568-3-3.499-3c-1.935 0-3.501 1.342-3.501 3s1.566 3 3.501 3M367.932 175c.021 0 .042-.005.065-.005.024 0 .045.005.068.005 2.723 0 4.935-2.015 4.935-4.499 0-2.489-2.212-4.501-4.935-4.501-.023 0-.044.005-.068.005-.023 0-.044-.005-.065-.005-2.723 0-4.932 2.012-4.932 4.501 0 2.484 2.209 4.499 4.932 4.499M350.997 175c2.764 0 5.003-2.014 5.003-4.499 0-2.484-2.24-4.501-5.003-4.501-2.758 0-4.997 2.017-4.997 4.501 0 2.485 2.24 4.499 4.997 4.499M335.5 175c2.488 0 4.5-1.788 4.5-3.999 0-2.21-2.012-4.001-4.5-4.001s-4.5 1.79-4.5 4.001c0 2.21 2.012 3.999 4.5 3.999M318.501 175c2.487 0 4.499-1.79 4.499-4s-2.012-4-4.499-4c-2.487 0-4.501 1.79-4.501 4s2.014 4 4.501 4M301.999 175a4 4 0 1 0 0-8.001 4 4 0 0 0 0 8.001M367.933 191c.021 0 .042-.005.066-.005.023 0 .044.005.068.005 3.28 0 5.933-2.462 5.933-5.499 0-3.039-2.654-5.501-5.933-5.501-.024 0-.045.005-.068.005-.024 0-.045-.005-.066-.005-3.277 0-5.933 2.462-5.933 5.501 0 3.037 2.656 5.499 5.933 5.499M335.501 190c3.04 0 5.499-2.239 5.499-5.001 0-2.76-2.46-4.999-5.499-4.999-3.041 0-5.501 2.239-5.501 4.999 0 2.762 2.46 5.001 5.501 5.001M318 190c2.76 0 5-2.017 5-4.503 0-2.482-2.24-4.497-5-4.497-2.763 0-5 2.015-5 4.497 0 2.486 2.237 4.503 5 4.503M302 190c2.763 0 5-2.014 5-4.501 0-2.485-2.237-4.499-5-4.499s-5 2.014-5 4.499c0 2.487 2.237 4.501 5 4.501M384 143c1.66 0 3-1.12 3-2.502 0-1.38-1.34-2.498-3-2.498-1.656 0-3 1.118-3 2.498 0 1.382 1.344 2.502 3 2.502M397 140.498c0 1.382 1.344 2.502 3.001 2.502 1.655 0 2.999-1.12 2.999-2.502 0-1.38-1.344-2.498-2.999-2.498-1.657 0-3.001 1.118-3.001 2.498M418 143c1.658 0 3-1.12 3-2.502 0-1.38-1.342-2.498-3-2.498s-3 1.118-3 2.498c0 1.382 1.342 2.502 3 2.502M383.999 159c2.21 0 4.001-1.568 4.001-3.5 0-1.93-1.791-3.5-4.001-3.5-2.208 0-3.999 1.57-3.999 3.5 0 1.932 1.791 3.5 3.999 3.5M400.004 159c2.208 0 3.996-1.564 3.996-3.5 0-1.938-1.788-3.5-3.996-3.5-2.214 0-4.004 1.562-4.004 3.5 0 1.936 1.79 3.5 4.004 3.5M417.5 159a3.5 3.5 0 1 0 0-7 3.5 3.5 0 0 0 0 7M384 175c2.758 0 5-2.014 5-4.499 0-2.484-2.242-4.501-5-4.501-2.76 0-5 2.017-5 4.501 0 2.485 2.24 4.499 5 4.499M400.505 175c2.483 0 4.495-1.788 4.495-3.999 0-2.21-2.012-4.001-4.495-4.001-2.487 0-4.505 1.79-4.505 4.001 0 2.21 2.018 3.999 4.505 3.999M417.5 175c2.486 0 4.5-1.79 4.5-4s-2.014-4-4.5-4c-2.484 0-4.5 1.79-4.5 4s2.016 4 4.5 4M433.311 175c2.152 0 3.918-1.452 4.245-3.349.25-.262.591-.489 1.186-.63-.398-1.648 3.43-4.114-.613-5.021-1.873.008-2.571.746-2.852 1.506a4.561 4.561 0 0 0-1.966-.455c-2.38 0-4.311 1.779-4.311 3.972 0 2.198 1.931 3.977 4.311 3.977M451 167c-2.21 0-4 1.567-4 3.5s1.79 3.5 4 3.5c2.212 0 4-1.567 4-3.5s-1.788-3.5-4-3.5M471 170.501c0-1.935-1.787-3.501-3.999-3.501-2.209 0-4.001 1.566-4.001 3.501 0 1.928 1.792 3.499 4.001 3.499 2.212 0 3.999-1.57 3.999-3.499M52.824 118.47c.036-.392.096-.764.645-.644v-1.296c-.759.102-1.833-.109-1.938.647.855.01.588 1.134 1.293 1.293M61.172 130.915c7.92 1.227 5.128-11.327-1.419-7.006-.685 1.308-.845 3.135-.708 5.256 1.026.274 1.306 1.279 2.127 1.75M206.148 112c2.848-1.04 5.592-2.19 7.676-4.033.194-2.87 1.507-4.563 1.097-8.067-1.364-2.404-2.486-5.068-4.935-6.336-9.974-2.936-14.08 6.146-10.964 14.403 2.258 1.47 4.253 3.212 7.126 4.033M113.792 135.531v1.938c1.887.951 1.887-2.889 0-1.938M150.724 106.607c2.178 1.962 1.959-2.39 0 0M149.921 116.582c.307-2.285-.369-3.548-.512-5.364-2.102-.446-1.78-.084-4.128 0-.651 2.297.038 2.653 0 5.364 2.164-.073 2.88.976 4.64 0M116.393 155.725c-1.962 2.175 2.39 1.956 0 0M280.877 141.253c-.151-1.904 1.037-2.55 1.123-4.227-1.42-1.86-4.295-.646-6.75-.53-.884 1.46-1.566 3.103-2.25 4.757 2.201 1.518 4.778.302 7.877 0M226.853 141.554v1.29c.648-.003.772.525 1.293.648-.06-1.014.09-2.24-1.292-1.938M219.948 138.626c-1.6-1.81-4.132.723-2.322 2.322 1.82.27 2.591-.505 2.322-2.322M126.607 142.5c1.012-.036 1.811.112 2.326.5.424-2.197-1.249-2.591-2.903-3-.24 1.205 1.06 1.087.577 2.5M240.827 145.469c.033-.39.093-.762.642-.642v-1.296c-.759.102-1.83-.111-1.938.648.855.006.591 1.131 1.296 1.29M289.793 118.531v1.938c1.885.951 1.885-2.889 0-1.938M265.492 124.542c-.045.01.039.6 0 .648-3.07 3.51 3.102-1.194 0-.648M136.144 157.447c.036-1.11-.495-1.659-1.29-1.94.063 1.013-.087 2.24 1.29 1.94M304.414 126.66c-.57-.494-1.845.4-1.938.649-.927 2.466 3.216.465 1.938-.648M239.207 164.274v2.586c1.473.18 2.43-.153 2.586-1.29-1.017-.282-.552-2.034-2.586-1.296M247.837 166.22c.048 1.125-.144 2.01-.648 2.583h2.583c.183-1.689-.234-2.78-1.935-2.583M262.853 168.147h1.293v-1.293h-1.293v1.292M243.852 169.147h1.296v-1.293h-1.296v1.292M287.992 140.635c-.681 3.753 2.802.273 0 0M302.598 143.2c-4.137-.745-1.419 1.973 0 0M278.515 146.205c-.432 1.494 2.523 1.395 1.935 0-.216-.525-1.713-.78-1.935 0M153.793 174.53v1.94c1.885.949 1.885-2.891 0-1.94M66.861 93.722V91.14h-2.583c-.504 2.223.36 3.084 2.583 2.583M263.943 151.259c.033-.498-.21-.672-.564-.714-.185-.375-.7-.417-.91.057-.473.072-.952.147-1.256.015-1.238 2.556 3.343 2.859 2.73.642M57.791 99.225c-1.016-.052-.503-1.505-1.938-1.177-.729 1.848.186 1.555-.645 2.945 1.617.099 2.023-.906 2.584-1.768M78 105.082v-2.201c-1.81-3.126-6.972-2.452-5.84 2.75 2.377.603 3.965.498 5.84-.549M284.855 163.147h1.29v-1.293h-1.29v1.292M157.378 191.21c1.005-1.592-2.196-1.901-1.938-.647.393.036.765.096.645.648h1.293M75.468 115.496h-1.936v1.938c1.734.444 1.246-1.335 1.936-1.938M72.035 123.248c-.078 1.617-1.23 2.025.648 2.586.456-.477 1.611-3.165-.648-2.586M49.763 128.934c.333-2.155.442-2.292-.537-3.897-2.182-.227-3.375.571-3.211 2.783 1.158.468 1.827 1.442 3.748 1.114M81.468 138c.702-.735.506-2.482.509-4h-2.544c-.268 1.168-.823 2.336 0 4h2.035M140.585 154.248c2.577-1.297 4.27 1.596 6.373 1.728 6.17.387 10.752-3.907 13.904-7.488 2.031-5.725 1.157-13.766-1.156-18.432-3.454-.406-4.45-3.257-7.532-4.032-3.823.04-8-.27-11.01.575-3.175 2.797-6.08 5.864-8.11 9.795-.477 7.38 2.329 11.506 4.634 16.124 1.657-.112 3.16-.07 2.897 1.73Zm15.064-16.702c-.013.559-.71.444-1.16.575.017-.562.711-.447 1.16-.575Zm-1.737 12.095c1.761-1.573-1.585 1.749 0 0ZM98.527 122c6.047-.273 9.201-3.508 9.473-9.692-2.199-2.734-4.555-7.448-9.473-6.057-1.207-.291-1.163.697-2.37.406-2.082 1.976-3.172 5.958-3.157 8.883 1.179 2.83 2.678 5.337 5.527 6.46Zm1.58-1.614c-.014.393-.485.313-.793.403.013-.392.484-.312.792-.403Zm-4.737-8.078c-.01.392-.482.313-.79.405.013-.392.484-.312.79-.405ZM485.013 181.287c-.39.087-.978-.054-1.026.426.393-.084.981.054 1.026-.426M479 178.34c.972.975 2.424 3.552 4.464 2.344-.98-.18.559-1.053.536-1.603-1.257-.358-3.688-1.702-5-.74M477 178.841c-2.705-1.464-7.499-1.189-9.665-3.098-2.891.389-6.12-2.093-7.335.341.868 2.572 5.734 3.533 10.82 3.993-1.14.88 1.034 2.423 2.57 1.764-.352-1.184-1.803-.971-2.466-1.754 1.728.154 3.477.253 5.102.335-.23-1.137.91-.768.974-1.58M451.583 159.908c.279 1.398 1.348 2.58 2.734 3.617a8.779 8.779 0 0 0-1.773-.121c-.085 2.34 2.973 2.088 4.29 3.271.066-.65-.013-1.183-.207-1.624 1.135.686 2.261 1.325 3.137 1.949-2.439-1.825-3.903-4.882-6.328-6.73.384.082.769.164 1.129.267 1.216 1.668 3.77 2.23 5.638 3.362 4.9-2.119 10.513 2.972 15.797.593-4.32-4.98-12.987-6.378-22.573-7.017a11.972 11.972 0 0 0-.649-.448 2.78 2.78 0 0 0 .145-.84c0-1.761-1.653-3.187-3.691-3.187-1.503 0-2.793.778-3.366 1.895-.832.175-1.506.636-1.866 1.539.936 2.472 4.324 2.918 7.583 3.474M592.207 169.574c.309-.714.819-1.197 1.128-1.91-1.593-1.036-2.208 1.634-1.128 1.91M594.95 161.25c.653.048.392.894.923 1.056.636-.978-.615-2.415-.924-1.056M473 152.84c-1.841-.417-2.75-3.858-5-2.541.557 1.646 3.429 3.213 5 2.542M460.845 147.773c-.33-.022-.66-.046-.99-.066-.036.495-.072.993-.102 1.484.495.036.99.07 1.482.102.069-.678-.156-1.103-.39-1.52M527.033 152.763c.453-1.503.414-.93.17-2.475-1.961-.621-2.198 2.823-.17 2.475M534.762 145.774c.45-.55.741-1.287.66-2.446-.492-.036-.99-.069-1.485-.102-.84.69-.129 2.085.825 2.548M529.934 145.457c.334.024.663.045.994.069.044-.66.092-1.323.138-1.983l-.997-.069-.135 1.983M396.792 134.595c-1.206.12-1.014-.981-2.442-.666-.864 1.443 2.475 1.479 2.442.666M435.957 136.752c-1.023-2.631-1.398 1.617 0 0M610.013 145.851c1.82.25 2.516-1.083 2.987-2.733-.871 1.083-3.194.123-2.987 2.733M482.258 136.814c-.78-.1-.303-1.293-1.422-1.095-.5.993 1.134 2.313 1.422 1.095M546.889 139c.783-.813.777-3.747-.72-4-1.21.78-.288 3.607.72 4M423.013 127.287c-.39.084-.978-.054-1.026.426.393-.081.981.054 1.026-.426M418 124.3c1.021 1.553 3.723 1.405 5 2.7-.634-1.67-3.056-3.793-5-2.7M488.675 128.524c1.143-.954.14-1.686-.858-2.049.009.928.21 1.678.858 2.05M569.1 133.312c.876-1.317-1.131-2.313-1.42-1.095.778.1.304 1.29 1.42 1.095M475.976 127c-.354-1.397-1.7-2.086-2.733-3-.909 1.017 1.203 2.517 2.733 3M401 120c-.873-1.339-2.816-3.926-4.941-2.661.506.135.228.528-.059.915 1.802.457 3.067 1.417 5 1.746M569.751 126c-1.544 1.282-2.408 1.885-1.139 3.962 3.391.421 2.591-2.787 1.14-3.962M548.392 122.61c1.1.868.744 3.02 1.375 4.304l1.244.086c.237-.482.51-.919.918-1.2.133-2.977.178-5.789-.792-6.79-.048-.89.664-5.83-1.677-6.01-2.83 1.553-.586 6.463-1.068 9.61M517.893 124.758c.684-.606.765-1.785.171-2.478-2.208-.405-1.803 2.487-.17 2.478M480.69 99c-.409-1.57-.18-3.621-2.17-4-.815 2.495.925 3.061 2.17 4M595.401 108.28c.61-1.222-1.52-2.31-1.91-1.126 1.643-.504.266 1.626 1.91 1.125M575.249 90.65c.066-2.251 2.692-5.39 2.648-9.317.465-.643 2.303-4.49-.13-4.328-.789 4.74-3.62 8.844-3.767 13.985.485-.03 1.153.157 1.249-.34M569.926 104.525c.219-1.12.012-1.867-.855-2.05-.213 1.12-.006 1.87.855 2.05M501.752 104.1c-.734.92 1.357 1.235 1.244.469-.873-.279-1.141-1.043-2.493-.94-.69-1.525-2.204-2.388-4.503-2.629.834 2.705 2.724 2.307 5.752 3.1M495.484 101.239c-.039-.681-2.19-2.562-1.95-.63.045.74 1.17.534 1.95.63"/></g></svg>